<mxfile host="drawio-plugin" modified="2022-06-06T23:01:20.578Z" agent="5.0 (X11; Linux x86_64) AppleWebKit/537.36 (KHTML, like Gecko) Chrome/89.0.4389.90 Safari/537.36" etag="wzEqWAXnO7fQ_DWgIrY_" version="14.7.4" type="embed" pages="2"><diagram id="x3GQrelhum7qfxz4kpIw" name="IEEE123"><mxGraphModel dx="-4224" dy="-732" grid="1" gridSize="10" guides="1" tooltips="1" connect="1" arrows="1" fold="1" page="1" pageScale="1" pageWidth="850" pageHeight="1100" math="0" shadow="0"><root><mxCell id="0"/><mxCell id="1" parent="0"/><mxCell id="OpdNplUtQxuJoesoAGpr-1" style="edgeStyle=none;rounded=0;jumpStyle=none;orthogonalLoop=1;jettySize=auto;html=1;startArrow=none;startFill=0;endArrow=none;endFill=0;strokeColor=#000000;strokeWidth=3;fontSize=55;fontStyle=1;fontFamily=Palatino;" parent="1" source="OpdNplUtQxuJoesoAGpr-13" target="OpdNplUtQxuJoesoAGpr-6" edge="1"><mxGeometry relative="1" as="geometry"/></mxCell><mxCell id="OpdNplUtQxuJoesoAGpr-2" value="34" style="ellipse;whiteSpace=wrap;html=1;aspect=fixed;rounded=1;shadow=0;glass=0;comic=0;strokeColor=#000000;fillColor=#000000;align=center;fontSize=55;labelPosition=center;verticalLabelPosition=top;verticalAlign=bottom;fontStyle=1;fontFamily=Palatino;" parent="1" vertex="1"><mxGeometry x="5359.501428571429" y="1179.5" width="31" height="31" as="geometry"/></mxCell><mxCell id="OpdNplUtQxuJoesoAGpr-3" style="edgeStyle=none;rounded=0;jumpStyle=none;orthogonalLoop=1;jettySize=auto;html=1;startArrow=none;startFill=0;endArrow=none;endFill=0;strokeColor=#000000;strokeWidth=3;fontSize=55;fontStyle=1;fontFamily=Palatino;" parent="1" source="OpdNplUtQxuJoesoAGpr-4" target="OpdNplUtQxuJoesoAGpr-2" edge="1"><mxGeometry relative="1" as="geometry"/></mxCell><mxCell id="OpdNplUtQxuJoesoAGpr-4" value="33" style="ellipse;whiteSpace=wrap;html=1;aspect=fixed;rounded=1;shadow=0;glass=0;comic=0;strokeColor=#000000;fillColor=#000000;align=right;fontSize=55;labelPosition=left;verticalLabelPosition=middle;verticalAlign=middle;fontStyle=1;fontFamily=Palatino;" parent="1" vertex="1"><mxGeometry x="5357.001428571429" y="1283.5" width="31" height="31" as="geometry"/></mxCell><mxCell id="OpdNplUtQxuJoesoAGpr-5" value="" style="edgeStyle=none;rounded=0;jumpStyle=none;orthogonalLoop=1;jettySize=auto;html=1;startArrow=none;startFill=0;endArrow=none;endFill=0;strokeColor=#000000;strokeWidth=3;fontSize=55;fontStyle=1;fontFamily=Palatino;" parent="1" source="OpdNplUtQxuJoesoAGpr-6" target="OpdNplUtQxuJoesoAGpr-8" edge="1"><mxGeometry relative="1" as="geometry"/></mxCell><mxCell id="OpdNplUtQxuJoesoAGpr-6" value="30" style="ellipse;whiteSpace=wrap;html=1;aspect=fixed;rounded=1;shadow=0;glass=0;comic=0;strokeColor=#82b366;fillColor=#d5e8d4;align=right;strokeWidth=7;fontSize=55;labelPosition=left;verticalLabelPosition=middle;verticalAlign=middle;fontStyle=1;fontFamily=Palatino;" parent="1" vertex="1"><mxGeometry x="5532.43" y="1255.5" width="31" height="31" as="geometry"/></mxCell><mxCell id="OpdNplUtQxuJoesoAGpr-7" value="" style="edgeStyle=none;rounded=0;jumpStyle=none;orthogonalLoop=1;jettySize=auto;html=1;startArrow=none;startFill=0;endArrow=none;endFill=0;strokeColor=#000000;strokeWidth=3;fontSize=55;fontStyle=1;fontFamily=Palatino;" parent="1" source="OpdNplUtQxuJoesoAGpr-8" target="OpdNplUtQxuJoesoAGpr-10" edge="1"><mxGeometry relative="1" as="geometry"/></mxCell><mxCell id="OpdNplUtQxuJoesoAGpr-8" value="31" style="ellipse;whiteSpace=wrap;html=1;aspect=fixed;rounded=1;shadow=0;glass=0;comic=0;strokeColor=#000000;fillColor=#000000;align=center;fontSize=55;labelPosition=center;verticalLabelPosition=top;verticalAlign=bottom;fontStyle=1;fontFamily=Palatino;" parent="1" vertex="1"><mxGeometry x="5501.501428571429" y="1172" width="31" height="31" as="geometry"/></mxCell><mxCell id="OpdNplUtQxuJoesoAGpr-9" value="" style="edgeStyle=none;rounded=0;jumpStyle=none;orthogonalLoop=1;jettySize=auto;html=1;startArrow=none;startFill=0;endArrow=none;endFill=0;strokeColor=#000000;strokeWidth=3;fontSize=55;fontStyle=1;fontFamily=Palatino;" parent="1" source="OpdNplUtQxuJoesoAGpr-10" target="OpdNplUtQxuJoesoAGpr-11" edge="1"><mxGeometry relative="1" as="geometry"/></mxCell><mxCell id="OpdNplUtQxuJoesoAGpr-10" value="32" style="ellipse;whiteSpace=wrap;html=1;aspect=fixed;rounded=1;shadow=0;glass=0;comic=0;strokeColor=#000000;fillColor=#000000;align=center;fontSize=55;labelPosition=center;verticalLabelPosition=top;verticalAlign=bottom;fontStyle=1;fontFamily=Palatino;" parent="1" vertex="1"><mxGeometry x="5623.43" y="1172" width="31" height="31" as="geometry"/></mxCell><mxCell id="OpdNplUtQxuJoesoAGpr-11" value="119" style="ellipse;whiteSpace=wrap;html=1;aspect=fixed;rounded=1;shadow=0;glass=0;comic=0;strokeColor=#000000;fillColor=#000000;align=center;fontSize=55;labelPosition=center;verticalLabelPosition=top;verticalAlign=bottom;fontStyle=1;fontFamily=Palatino;" parent="1" vertex="1"><mxGeometry x="5744.501428571429" y="1172" width="31" height="31" as="geometry"/></mxCell><mxCell id="OpdNplUtQxuJoesoAGpr-12" value="" style="edgeStyle=none;rounded=0;jumpStyle=none;orthogonalLoop=1;jettySize=auto;html=1;startArrow=none;startFill=0;endArrow=none;endFill=0;strokeColor=#000000;strokeWidth=3;fontSize=55;fontColor=#BA5551;fontStyle=1;fontFamily=Palatino;" parent="1" source="OpdNplUtQxuJoesoAGpr-13" target="OpdNplUtQxuJoesoAGpr-16" edge="1"><mxGeometry relative="1" as="geometry"><mxPoint x="5492.8485280143905" y="1379.3282406448639" as="targetPoint"/></mxGeometry></mxCell><mxCell id="OpdNplUtQxuJoesoAGpr-13" value="27" style="ellipse;whiteSpace=wrap;html=1;aspect=fixed;rounded=1;shadow=0;glass=0;comic=0;strokeColor=#000000;fillColor=#000000;align=right;fontSize=55;labelPosition=left;verticalLabelPosition=bottom;verticalAlign=top;fontStyle=1;fontFamily=Palatino;" parent="1" vertex="1"><mxGeometry x="5568.001428571429" y="1350.5" width="31" height="31" as="geometry"/></mxCell><mxCell id="OpdNplUtQxuJoesoAGpr-14" style="edgeStyle=none;rounded=0;jumpStyle=none;orthogonalLoop=1;jettySize=auto;html=1;exitX=0.5;exitY=0.5;exitDx=0;exitDy=0;startArrow=none;startFill=0;endArrow=none;endFill=0;strokeColor=#000000;strokeWidth=3;exitPerimeter=0;fontSize=55;fontStyle=1;fontFamily=Palatino;" parent="1" source="OpdNplUtQxuJoesoAGpr-16" target="OpdNplUtQxuJoesoAGpr-4" edge="1"><mxGeometry relative="1" as="geometry"/></mxCell><mxCell id="OpdNplUtQxuJoesoAGpr-15" value="" style="edgeStyle=none;rounded=0;jumpStyle=none;orthogonalLoop=1;jettySize=auto;html=1;startArrow=none;startFill=0;endArrow=none;endFill=0;strokeColor=#000000;strokeWidth=3;fontSize=55;fontStyle=1;fontFamily=Palatino;" parent="1" source="OpdNplUtQxuJoesoAGpr-16" target="OpdNplUtQxuJoesoAGpr-18" edge="1"><mxGeometry relative="1" as="geometry"/></mxCell><mxCell id="OpdNplUtQxuJoesoAGpr-16" value="28" style="ellipse;whiteSpace=wrap;html=1;aspect=fixed;rounded=1;shadow=0;glass=0;comic=0;strokeColor=#000000;fillColor=#000000;align=center;fontSize=55;labelPosition=center;verticalLabelPosition=bottom;verticalAlign=top;fontStyle=1;fontFamily=Palatino;" parent="1" vertex="1"><mxGeometry x="5355.501428571429" y="1385" width="31" height="31" as="geometry"/></mxCell><mxCell id="OpdNplUtQxuJoesoAGpr-17" value="" style="edgeStyle=none;rounded=0;jumpStyle=none;orthogonalLoop=1;jettySize=auto;html=1;startArrow=none;startFill=0;endArrow=none;endFill=0;strokeColor=#000000;strokeWidth=3;fontSize=55;fontStyle=1;fontFamily=Palatino;" parent="1" source="OpdNplUtQxuJoesoAGpr-18" target="OpdNplUtQxuJoesoAGpr-19" edge="1"><mxGeometry relative="1" as="geometry"/></mxCell><mxCell id="OpdNplUtQxuJoesoAGpr-18" value="29" style="ellipse;whiteSpace=wrap;html=1;aspect=fixed;rounded=1;shadow=0;glass=0;comic=0;strokeColor=#000000;fillColor=#000000;align=right;fontSize=55;labelPosition=left;verticalLabelPosition=middle;verticalAlign=middle;fontStyle=1;fontFamily=Palatino;" parent="1" vertex="1"><mxGeometry x="5228.001428571429" y="1409.5" width="31" height="31" as="geometry"/></mxCell><mxCell id="OpdNplUtQxuJoesoAGpr-19" value="35" style="ellipse;whiteSpace=wrap;html=1;aspect=fixed;rounded=1;shadow=0;glass=0;comic=0;strokeColor=#000000;fillColor=#000000;align=right;fontSize=55;labelPosition=left;verticalLabelPosition=middle;verticalAlign=middle;fontStyle=1;fontFamily=Palatino;" parent="1" vertex="1"><mxGeometry x="5228.001428571429" y="1266" width="31" height="31" as="geometry"/></mxCell><mxCell id="OpdNplUtQxuJoesoAGpr-20" style="edgeStyle=none;rounded=0;jumpStyle=none;orthogonalLoop=1;jettySize=auto;html=1;exitX=0.323;exitY=0;exitDx=0;exitDy=0;startArrow=none;startFill=0;strokeColor=#000000;strokeWidth=3;endArrow=none;endFill=0;fillColor=#d5e8d4;exitPerimeter=0;fontSize=55;fontStyle=1;fontFamily=Palatino;" parent="1" source="OpdNplUtQxuJoesoAGpr-23" target="OpdNplUtQxuJoesoAGpr-13" edge="1"><mxGeometry relative="1" as="geometry"><mxPoint x="5589.43" y="1403" as="targetPoint"/></mxGeometry></mxCell><mxCell id="OpdNplUtQxuJoesoAGpr-21" value="" style="edgeStyle=none;rounded=0;jumpStyle=none;orthogonalLoop=1;jettySize=auto;html=1;startArrow=none;startFill=0;endArrow=none;endFill=0;strokeColor=#000000;strokeWidth=3;fontSize=55;fontStyle=1;fontFamily=Palatino;" parent="1" source="OpdNplUtQxuJoesoAGpr-23" target="OpdNplUtQxuJoesoAGpr-249" edge="1"><mxGeometry relative="1" as="geometry"/></mxCell><mxCell id="OpdNplUtQxuJoesoAGpr-23" value="25" style="ellipse;whiteSpace=wrap;html=1;aspect=fixed;rounded=1;shadow=0;glass=0;comic=0;strokeColor=#000000;fillColor=#000000;align=right;fontSize=55;labelPosition=left;verticalLabelPosition=bottom;verticalAlign=top;fontStyle=1;fontFamily=Palatino;" parent="1" vertex="1"><mxGeometry x="5609.43" y="1472" width="31" height="31" as="geometry"/></mxCell><mxCell id="OpdNplUtQxuJoesoAGpr-24" value="" style="edgeStyle=none;rounded=0;jumpStyle=none;orthogonalLoop=1;jettySize=auto;html=1;startArrow=none;startFill=0;endArrow=none;endFill=0;strokeColor=#000000;strokeWidth=3;fontSize=55;fontStyle=1;fontFamily=Palatino;" parent="1" source="OpdNplUtQxuJoesoAGpr-26" target="OpdNplUtQxuJoesoAGpr-248" edge="1"><mxGeometry relative="1" as="geometry"/></mxCell><mxCell id="12" style="edgeStyle=none;rounded=0;orthogonalLoop=1;jettySize=auto;html=1;endArrow=none;endFill=0;strokeWidth=3;" parent="1" source="OpdNplUtQxuJoesoAGpr-26" target="OpdNplUtQxuJoesoAGpr-23" edge="1"><mxGeometry relative="1" as="geometry"><mxPoint x="5667" y="1610" as="sourcePoint"/></mxGeometry></mxCell><mxCell id="OpdNplUtQxuJoesoAGpr-26" value="23" style="ellipse;whiteSpace=wrap;html=1;aspect=fixed;rounded=1;shadow=0;glass=0;comic=0;strokeColor=#82b366;fillColor=#d5e8d4;align=right;fontSize=55;labelPosition=left;verticalLabelPosition=bottom;verticalAlign=top;strokeWidth=7;fontStyle=1;fontFamily=Palatino;" parent="1" vertex="1"><mxGeometry x="5651.43" y="1594" width="31" height="31" as="geometry"/></mxCell><mxCell id="OpdNplUtQxuJoesoAGpr-27" value="" style="edgeStyle=none;rounded=0;jumpStyle=none;orthogonalLoop=1;jettySize=auto;html=1;startArrow=none;startFill=0;endArrow=none;endFill=0;strokeColor=#000000;strokeWidth=3;fontSize=55;fontStyle=1;fontFamily=Palatino;" parent="1" source="OpdNplUtQxuJoesoAGpr-30" target="OpdNplUtQxuJoesoAGpr-246" edge="1"><mxGeometry relative="1" as="geometry"/></mxCell><mxCell id="OpdNplUtQxuJoesoAGpr-28" value="" style="edgeStyle=none;rounded=0;jumpStyle=none;orthogonalLoop=1;jettySize=auto;html=1;startArrow=none;startFill=0;endArrow=none;endFill=0;strokeColor=#000000;strokeWidth=3;fontSize=55;fontStyle=1;fontFamily=Palatino;" parent="1" source="OpdNplUtQxuJoesoAGpr-30" target="OpdNplUtQxuJoesoAGpr-209" edge="1"><mxGeometry relative="1" as="geometry"/></mxCell><mxCell id="11" style="edgeStyle=none;rounded=0;orthogonalLoop=1;jettySize=auto;html=1;endArrow=none;endFill=0;strokeWidth=3;" parent="1" source="OpdNplUtQxuJoesoAGpr-30" target="OpdNplUtQxuJoesoAGpr-26" edge="1"><mxGeometry relative="1" as="geometry"/></mxCell><mxCell id="OpdNplUtQxuJoesoAGpr-30" value="20" style="ellipse;whiteSpace=wrap;html=1;aspect=fixed;rounded=1;shadow=0;glass=0;comic=0;strokeColor=#000000;fillColor=#000000;align=right;verticalAlign=top;labelPosition=left;verticalLabelPosition=bottom;fontSize=55;fontStyle=1;fontFamily=Palatino;" parent="1" vertex="1"><mxGeometry x="5692.501428571429" y="1716" width="31" height="31" as="geometry"/></mxCell><mxCell id="OpdNplUtQxuJoesoAGpr-32" value="" style="edgeStyle=none;rounded=0;jumpStyle=none;orthogonalLoop=1;jettySize=auto;html=1;startArrow=none;startFill=0;endArrow=none;endFill=0;strokeColor=#000000;strokeWidth=3;fontSize=55;fontStyle=1;fontFamily=Palatino;" parent="1" source="OpdNplUtQxuJoesoAGpr-34" target="OpdNplUtQxuJoesoAGpr-173" edge="1"><mxGeometry relative="1" as="geometry"/></mxCell><mxCell id="OpdNplUtQxuJoesoAGpr-33" value="" style="edgeStyle=none;rounded=0;jumpStyle=none;orthogonalLoop=1;jettySize=auto;html=1;startArrow=none;startFill=0;endArrow=none;endFill=0;strokeColor=#000000;strokeWidth=3;fontSize=55;fontStyle=1;fontFamily=Palatino;" parent="1" source="OpdNplUtQxuJoesoAGpr-34" target="OpdNplUtQxuJoesoAGpr-36" edge="1"><mxGeometry relative="1" as="geometry"/></mxCell><mxCell id="13" style="edgeStyle=none;rounded=0;orthogonalLoop=1;jettySize=auto;html=1;endArrow=none;endFill=0;strokeWidth=3;targetPortConstraint=none;" parent="1" source="OpdNplUtQxuJoesoAGpr-34" target="OpdNplUtQxuJoesoAGpr-30" edge="1"><mxGeometry relative="1" as="geometry"/></mxCell><mxCell id="OpdNplUtQxuJoesoAGpr-34" value="15" style="ellipse;whiteSpace=wrap;html=1;aspect=fixed;rounded=1;shadow=0;glass=0;comic=0;strokeColor=#82b366;fillColor=#d5e8d4;align=right;labelPosition=left;verticalLabelPosition=top;verticalAlign=bottom;strokeWidth=7;fontSize=55;fontStyle=1;fontFamily=Palatino;" parent="1" vertex="1"><mxGeometry x="5818.001428571429" y="2096" width="31" height="31" as="geometry"/></mxCell><mxCell id="OpdNplUtQxuJoesoAGpr-35" value="" style="edgeStyle=none;rounded=0;jumpStyle=none;orthogonalLoop=1;jettySize=auto;html=1;startArrow=none;startFill=0;endArrow=none;endFill=0;strokeColor=#000000;strokeWidth=3;fontSize=55;fontStyle=1;fontFamily=Palatino;" parent="1" source="OpdNplUtQxuJoesoAGpr-36" target="OpdNplUtQxuJoesoAGpr-38" edge="1"><mxGeometry relative="1" as="geometry"/></mxCell><mxCell id="OpdNplUtQxuJoesoAGpr-36" value="117" style="ellipse;whiteSpace=wrap;html=1;aspect=fixed;rounded=1;shadow=0;glass=0;comic=0;strokeColor=#000000;fillColor=#000000;align=center;labelPosition=center;verticalLabelPosition=top;verticalAlign=bottom;fontSize=55;fontStyle=1;fontFamily=Palatino;" parent="1" vertex="1"><mxGeometry x="5982.501428571429" y="2075.5" width="31" height="31" as="geometry"/></mxCell><mxCell id="OpdNplUtQxuJoesoAGpr-37" value="" style="edgeStyle=none;rounded=0;jumpStyle=none;orthogonalLoop=1;jettySize=auto;html=1;startArrow=none;startFill=0;endArrow=none;endFill=0;strokeColor=#000000;strokeWidth=3;fontSize=55;fontStyle=1;fontFamily=Palatino;" parent="1" source="OpdNplUtQxuJoesoAGpr-38" target="OpdNplUtQxuJoesoAGpr-40" edge="1"><mxGeometry relative="1" as="geometry"/></mxCell><mxCell id="OpdNplUtQxuJoesoAGpr-38" value="54" style="ellipse;whiteSpace=wrap;html=1;aspect=fixed;rounded=1;shadow=0;glass=0;comic=0;align=center;fontSize=55;labelPosition=center;verticalLabelPosition=top;verticalAlign=bottom;strokeWidth=1;fillColor=#000000;fontStyle=1;fontFamily=Palatino;" parent="1" vertex="1"><mxGeometry x="6092.43" y="2051" width="31" height="31" as="geometry"/></mxCell><mxCell id="OpdNplUtQxuJoesoAGpr-39" value="" style="edgeStyle=none;rounded=0;jumpStyle=none;orthogonalLoop=1;jettySize=auto;html=1;startArrow=none;startFill=0;endArrow=none;endFill=0;strokeColor=#000000;strokeWidth=3;fontSize=55;fontStyle=1;fontFamily=Palatino;" parent="1" source="OpdNplUtQxuJoesoAGpr-40" target="OpdNplUtQxuJoesoAGpr-43" edge="1"><mxGeometry relative="1" as="geometry"/></mxCell><mxCell id="OpdNplUtQxuJoesoAGpr-40" value="55" style="ellipse;whiteSpace=wrap;html=1;aspect=fixed;rounded=1;shadow=0;glass=0;comic=0;strokeColor=#000000;fillColor=#000000;align=center;fontSize=55;labelPosition=center;verticalLabelPosition=top;verticalAlign=bottom;fontStyle=1;fontFamily=Palatino;" parent="1" vertex="1"><mxGeometry x="6203.43" y="2026" width="31" height="31" as="geometry"/></mxCell><mxCell id="OpdNplUtQxuJoesoAGpr-41" value="" style="edgeStyle=none;rounded=0;jumpStyle=none;orthogonalLoop=1;jettySize=auto;html=1;startArrow=none;startFill=0;endArrow=none;endFill=0;strokeColor=#000000;strokeWidth=3;fontSize=55;fontStyle=1;fontFamily=Palatino;" parent="1" source="OpdNplUtQxuJoesoAGpr-43" target="OpdNplUtQxuJoesoAGpr-170" edge="1"><mxGeometry relative="1" as="geometry"/></mxCell><mxCell id="OpdNplUtQxuJoesoAGpr-42" value="" style="edgeStyle=none;rounded=0;jumpStyle=none;orthogonalLoop=1;jettySize=auto;html=1;startArrow=none;startFill=0;endArrow=none;endFill=0;strokeColor=#000000;strokeWidth=3;fontSize=55;fontStyle=1;fontFamily=Palatino;" parent="1" source="OpdNplUtQxuJoesoAGpr-43" target="OpdNplUtQxuJoesoAGpr-46" edge="1"><mxGeometry relative="1" as="geometry"/></mxCell><mxCell id="OpdNplUtQxuJoesoAGpr-43" value="56" style="ellipse;whiteSpace=wrap;html=1;aspect=fixed;rounded=1;shadow=0;glass=0;comic=0;strokeColor=#000000;fillColor=#000000;align=center;fontSize=55;labelPosition=center;verticalLabelPosition=bottom;verticalAlign=top;fontStyle=1;fontFamily=Palatino;" parent="1" vertex="1"><mxGeometry x="6313.501428571429" y="2000.5" width="31" height="31" as="geometry"/></mxCell><mxCell id="OpdNplUtQxuJoesoAGpr-44" value="" style="edgeStyle=none;rounded=0;jumpStyle=none;orthogonalLoop=1;jettySize=auto;html=1;startArrow=none;startFill=0;endArrow=none;endFill=0;strokeColor=#000000;strokeWidth=3;fontSize=55;fontStyle=1;fontFamily=Palatino;" parent="1" source="OpdNplUtQxuJoesoAGpr-46" target="OpdNplUtQxuJoesoAGpr-167" edge="1"><mxGeometry relative="1" as="geometry"/></mxCell><mxCell id="OpdNplUtQxuJoesoAGpr-45" value="" style="edgeStyle=none;rounded=0;jumpStyle=none;orthogonalLoop=1;jettySize=auto;html=1;startArrow=none;startFill=0;endArrow=none;endFill=0;strokeColor=#000000;strokeWidth=3;fontSize=55;fontStyle=1;fontFamily=Palatino;" parent="1" source="OpdNplUtQxuJoesoAGpr-46" target="OpdNplUtQxuJoesoAGpr-50" edge="1"><mxGeometry relative="1" as="geometry"/></mxCell><mxCell id="OpdNplUtQxuJoesoAGpr-46" value="59" style="ellipse;whiteSpace=wrap;html=1;aspect=fixed;rounded=1;shadow=0;glass=0;comic=0;strokeColor=#000000;fillColor=#000000;align=center;fontSize=55;labelPosition=center;verticalLabelPosition=top;verticalAlign=bottom;fontStyle=1;fontFamily=Palatino;" parent="1" vertex="1"><mxGeometry x="6272.001428571429" y="1885" width="31" height="31" as="geometry"/></mxCell><mxCell id="OpdNplUtQxuJoesoAGpr-47" value="" style="edgeStyle=none;rounded=0;jumpStyle=none;orthogonalLoop=1;jettySize=auto;html=1;startArrow=none;startFill=0;endArrow=none;endFill=0;strokeColor=#000000;strokeWidth=3;fontSize=55;fontStyle=1;fontFamily=Palatino;" parent="1" source="OpdNplUtQxuJoesoAGpr-50" target="OpdNplUtQxuJoesoAGpr-164" edge="1"><mxGeometry relative="1" as="geometry"/></mxCell><mxCell id="OpdNplUtQxuJoesoAGpr-48" value="" style="edgeStyle=none;rounded=0;jumpStyle=none;orthogonalLoop=1;jettySize=auto;html=1;startArrow=none;startFill=0;endArrow=none;endFill=0;strokeColor=#000000;strokeWidth=3;fontSize=55;fontStyle=1;fontFamily=Palatino;" parent="1" source="OpdNplUtQxuJoesoAGpr-50" target="OpdNplUtQxuJoesoAGpr-155" edge="1"><mxGeometry relative="1" as="geometry"/></mxCell><mxCell id="OpdNplUtQxuJoesoAGpr-49" value="" style="edgeStyle=none;rounded=0;jumpStyle=none;orthogonalLoop=1;jettySize=auto;html=1;startArrow=none;startFill=0;endArrow=none;endFill=0;strokeColor=#000000;strokeWidth=3;fontSize=55;fontStyle=1;fontFamily=Palatino;" parent="1" source="OpdNplUtQxuJoesoAGpr-50" target="OpdNplUtQxuJoesoAGpr-52" edge="1"><mxGeometry relative="1" as="geometry"/></mxCell><mxCell id="OpdNplUtQxuJoesoAGpr-50" value="62" style="ellipse;whiteSpace=wrap;html=1;aspect=fixed;rounded=1;shadow=0;glass=0;comic=0;strokeColor=#000000;fillColor=#000000;align=right;labelPosition=left;verticalLabelPosition=top;verticalAlign=bottom;fontSize=55;fontStyle=1;fontFamily=Palatino;" parent="1" vertex="1"><mxGeometry x="6540.43" y="1815" width="31" height="31" as="geometry"/></mxCell><mxCell id="OpdNplUtQxuJoesoAGpr-51" value="" style="edgeStyle=none;rounded=0;jumpStyle=none;orthogonalLoop=1;jettySize=auto;html=1;startArrow=none;startFill=0;endArrow=none;endFill=0;strokeColor=#000000;strokeWidth=3;fontSize=55;fontStyle=1;fontFamily=Palatino;" parent="1" source="OpdNplUtQxuJoesoAGpr-52" target="OpdNplUtQxuJoesoAGpr-56" edge="1"><mxGeometry relative="1" as="geometry"><mxPoint x="6796.501428571428" y="1831.5" as="targetPoint"/></mxGeometry></mxCell><mxCell id="OpdNplUtQxuJoesoAGpr-52" value="125" style="ellipse;whiteSpace=wrap;html=1;aspect=fixed;rounded=1;shadow=0;glass=0;comic=0;strokeColor=#000000;fillColor=#000000;align=center;fontSize=55;labelPosition=center;verticalLabelPosition=top;verticalAlign=bottom;fontStyle=1;fontFamily=Palatino;" parent="1" vertex="1"><mxGeometry x="6718.001428571429" y="1816" width="31" height="31" as="geometry"/></mxCell><mxCell id="OpdNplUtQxuJoesoAGpr-53" value="" style="edgeStyle=none;rounded=0;jumpStyle=none;orthogonalLoop=1;jettySize=auto;html=1;startArrow=none;startFill=0;endArrow=none;endFill=0;strokeColor=#000000;strokeWidth=3;fontSize=55;fontStyle=1;fontFamily=Palatino;" parent="1" source="OpdNplUtQxuJoesoAGpr-56" target="OpdNplUtQxuJoesoAGpr-148" edge="1"><mxGeometry relative="1" as="geometry"/></mxCell><mxCell id="OpdNplUtQxuJoesoAGpr-54" value="" style="edgeStyle=none;rounded=0;jumpStyle=none;orthogonalLoop=1;jettySize=auto;html=1;startArrow=none;startFill=0;endArrow=none;endFill=0;strokeColor=#000000;strokeWidth=3;fontSize=55;fontStyle=1;fontFamily=Palatino;" parent="1" source="OpdNplUtQxuJoesoAGpr-56" target="OpdNplUtQxuJoesoAGpr-108" edge="1"><mxGeometry relative="1" as="geometry"/></mxCell><mxCell id="OpdNplUtQxuJoesoAGpr-55" value="" style="edgeStyle=none;rounded=0;jumpStyle=none;orthogonalLoop=1;jettySize=auto;html=1;startArrow=none;startFill=0;endArrow=none;endFill=0;strokeColor=#000000;strokeWidth=3;fontSize=55;fontStyle=1;fontFamily=Palatino;" parent="1" source="OpdNplUtQxuJoesoAGpr-56" target="OpdNplUtQxuJoesoAGpr-59" edge="1"><mxGeometry relative="1" as="geometry"/></mxCell><mxCell id="OpdNplUtQxuJoesoAGpr-56" value="69" style="ellipse;whiteSpace=wrap;html=1;aspect=fixed;rounded=1;shadow=0;glass=0;comic=0;strokeColor=#000000;fillColor=#000000;align=left;fontSize=55;labelPosition=right;verticalLabelPosition=middle;verticalAlign=middle;fontStyle=1;fontFamily=Palatino;" parent="1" vertex="1"><mxGeometry x="6875.43" y="1821" width="31" height="31" as="geometry"/></mxCell><mxCell id="OpdNplUtQxuJoesoAGpr-57" value="" style="edgeStyle=none;rounded=0;jumpStyle=none;orthogonalLoop=1;jettySize=auto;html=1;startArrow=none;startFill=0;endArrow=none;endFill=0;strokeColor=#000000;strokeWidth=3;fontSize=55;fontStyle=1;fontFamily=Palatino;" parent="1" source="OpdNplUtQxuJoesoAGpr-59" target="OpdNplUtQxuJoesoAGpr-102" edge="1"><mxGeometry relative="1" as="geometry"/></mxCell><mxCell id="OpdNplUtQxuJoesoAGpr-58" value="" style="edgeStyle=none;rounded=0;jumpStyle=none;orthogonalLoop=1;jettySize=auto;html=1;startArrow=none;startFill=0;endArrow=none;endFill=0;strokeColor=#000000;strokeWidth=3;fontSize=55;fontStyle=1;fontFamily=Palatino;" parent="1" source="OpdNplUtQxuJoesoAGpr-59" target="OpdNplUtQxuJoesoAGpr-62" edge="1"><mxGeometry relative="1" as="geometry"/></mxCell><mxCell id="OpdNplUtQxuJoesoAGpr-59" value="74" style="ellipse;whiteSpace=wrap;html=1;aspect=fixed;rounded=1;shadow=0;glass=0;comic=0;strokeColor=#000000;fillColor=#000000;align=right;fontSize=55;labelPosition=left;verticalLabelPosition=middle;verticalAlign=middle;fontStyle=1;fontFamily=Palatino;" parent="1" vertex="1"><mxGeometry x="6921.43" y="1940" width="31" height="31" as="geometry"/></mxCell><mxCell id="OpdNplUtQxuJoesoAGpr-60" value="" style="edgeStyle=none;rounded=0;jumpStyle=none;orthogonalLoop=1;jettySize=auto;html=1;startArrow=none;startFill=0;endArrow=none;endFill=0;strokeColor=#000000;strokeWidth=3;fontSize=55;fontStyle=1;fontFamily=Palatino;" parent="1" source="OpdNplUtQxuJoesoAGpr-62" target="OpdNplUtQxuJoesoAGpr-85" edge="1"><mxGeometry relative="1" as="geometry"/></mxCell><mxCell id="OpdNplUtQxuJoesoAGpr-61" value="" style="edgeStyle=none;rounded=0;jumpStyle=none;orthogonalLoop=1;jettySize=auto;html=1;startArrow=none;startFill=0;endArrow=none;endFill=0;strokeColor=#000000;strokeWidth=3;fontSize=55;fontStyle=1;fontFamily=Palatino;" parent="1" source="OpdNplUtQxuJoesoAGpr-62" target="OpdNplUtQxuJoesoAGpr-64" edge="1"><mxGeometry relative="1" as="geometry"/></mxCell><mxCell id="OpdNplUtQxuJoesoAGpr-62" value="78" style="ellipse;whiteSpace=wrap;html=1;aspect=fixed;rounded=1;shadow=0;glass=0;comic=0;strokeColor=#82b366;fillColor=#d5e8d4;align=right;strokeWidth=7;fontSize=55;labelPosition=left;verticalLabelPosition=middle;verticalAlign=middle;fontStyle=1;fontFamily=Palatino;" parent="1" vertex="1"><mxGeometry x="6968.001428571429" y="2060" width="31" height="31" as="geometry"/></mxCell><mxCell id="OpdNplUtQxuJoesoAGpr-63" value="" style="edgeStyle=none;rounded=0;jumpStyle=none;orthogonalLoop=1;jettySize=auto;html=1;startArrow=none;startFill=0;endArrow=none;endFill=0;strokeColor=#000000;strokeWidth=3;fontSize=55;fontStyle=1;fontFamily=Palatino;" parent="1" source="OpdNplUtQxuJoesoAGpr-64" target="OpdNplUtQxuJoesoAGpr-67" edge="1"><mxGeometry relative="1" as="geometry"/></mxCell><mxCell id="OpdNplUtQxuJoesoAGpr-64" value="88" style="ellipse;whiteSpace=wrap;html=1;aspect=fixed;rounded=1;shadow=0;glass=0;comic=0;strokeColor=#000000;fillColor=#000000;align=center;fontSize=55;labelPosition=center;verticalLabelPosition=bottom;verticalAlign=top;fontStyle=1;fontFamily=Palatino;" parent="1" vertex="1"><mxGeometry x="6972.001428571429" y="2318" width="31" height="31" as="geometry"/></mxCell><mxCell id="OpdNplUtQxuJoesoAGpr-65" value="" style="edgeStyle=none;rounded=0;jumpStyle=none;orthogonalLoop=1;jettySize=auto;html=1;startArrow=none;startFill=0;endArrow=none;endFill=0;strokeColor=#000000;strokeWidth=3;fontSize=55;fontStyle=1;fontFamily=Palatino;" parent="1" source="OpdNplUtQxuJoesoAGpr-67" target="OpdNplUtQxuJoesoAGpr-83" edge="1"><mxGeometry relative="1" as="geometry"/></mxCell><mxCell id="OpdNplUtQxuJoesoAGpr-66" value="" style="edgeStyle=none;rounded=0;jumpStyle=none;orthogonalLoop=1;jettySize=auto;html=1;startArrow=none;startFill=0;endArrow=none;endFill=0;strokeColor=#000000;strokeWidth=3;fontSize=55;fontStyle=1;fontFamily=Palatino;" parent="1" source="OpdNplUtQxuJoesoAGpr-67" target="OpdNplUtQxuJoesoAGpr-70" edge="1"><mxGeometry relative="1" as="geometry"/></mxCell><mxCell id="OpdNplUtQxuJoesoAGpr-67" value="89" style="ellipse;whiteSpace=wrap;html=1;aspect=fixed;rounded=1;shadow=0;glass=0;comic=0;strokeColor=#000000;fillColor=#000000;align=center;fontSize=55;labelPosition=center;verticalLabelPosition=bottom;verticalAlign=top;fontStyle=1;fontFamily=Palatino;" parent="1" vertex="1"><mxGeometry x="6808.43" y="2318" width="31" height="31" as="geometry"/></mxCell><mxCell id="OpdNplUtQxuJoesoAGpr-68" value="" style="edgeStyle=none;rounded=0;jumpStyle=none;orthogonalLoop=1;jettySize=auto;html=1;startArrow=none;startFill=0;endArrow=none;endFill=0;strokeColor=#000000;strokeWidth=3;fontSize=55;fontStyle=1;fontFamily=Palatino;" parent="1" source="OpdNplUtQxuJoesoAGpr-70" target="OpdNplUtQxuJoesoAGpr-82" edge="1"><mxGeometry relative="1" as="geometry"/></mxCell><mxCell id="OpdNplUtQxuJoesoAGpr-69" value="" style="edgeStyle=none;rounded=0;jumpStyle=none;orthogonalLoop=1;jettySize=auto;html=1;startArrow=none;startFill=0;endArrow=none;endFill=0;strokeColor=#000000;strokeWidth=3;fontSize=55;fontStyle=1;fontFamily=Palatino;" parent="1" source="OpdNplUtQxuJoesoAGpr-70" target="OpdNplUtQxuJoesoAGpr-73" edge="1"><mxGeometry relative="1" as="geometry"/></mxCell><mxCell id="OpdNplUtQxuJoesoAGpr-70" value="91" style="ellipse;whiteSpace=wrap;html=1;aspect=fixed;rounded=1;shadow=0;glass=0;comic=0;strokeColor=#000000;fillColor=#000000;align=center;fontSize=55;labelPosition=center;verticalLabelPosition=bottom;verticalAlign=top;fontStyle=1;fontFamily=Palatino;" parent="1" vertex="1"><mxGeometry x="6645.43" y="2318" width="31" height="31" as="geometry"/></mxCell><mxCell id="OpdNplUtQxuJoesoAGpr-71" value="" style="edgeStyle=none;rounded=0;jumpStyle=none;orthogonalLoop=1;jettySize=auto;html=1;startArrow=none;startFill=0;endArrow=none;endFill=0;strokeColor=#000000;strokeWidth=3;fontSize=55;fontStyle=1;fontFamily=Palatino;" parent="1" source="OpdNplUtQxuJoesoAGpr-73" target="OpdNplUtQxuJoesoAGpr-81" edge="1"><mxGeometry relative="1" as="geometry"/></mxCell><mxCell id="OpdNplUtQxuJoesoAGpr-72" value="" style="edgeStyle=none;rounded=0;jumpStyle=none;orthogonalLoop=1;jettySize=auto;html=1;startArrow=none;startFill=0;endArrow=none;endFill=0;strokeColor=#000000;strokeWidth=3;fontSize=55;fontStyle=1;fontFamily=Palatino;" parent="1" source="OpdNplUtQxuJoesoAGpr-73" target="OpdNplUtQxuJoesoAGpr-76" edge="1"><mxGeometry relative="1" as="geometry"/></mxCell><mxCell id="OpdNplUtQxuJoesoAGpr-73" value="93" style="ellipse;whiteSpace=wrap;html=1;aspect=fixed;rounded=1;shadow=0;glass=0;comic=0;align=center;fontSize=55;labelPosition=center;verticalLabelPosition=bottom;verticalAlign=top;strokeWidth=1;fillColor=#000000;fontStyle=1;fontFamily=Palatino;" parent="1" vertex="1"><mxGeometry x="6481.43" y="2318" width="31" height="31" as="geometry"/></mxCell><mxCell id="OpdNplUtQxuJoesoAGpr-74" value="" style="edgeStyle=none;rounded=0;jumpStyle=none;orthogonalLoop=1;jettySize=auto;html=1;startArrow=none;startFill=0;endArrow=none;endFill=0;strokeColor=#000000;strokeWidth=3;fontSize=55;fontStyle=1;fontFamily=Palatino;" parent="1" source="OpdNplUtQxuJoesoAGpr-76" target="OpdNplUtQxuJoesoAGpr-80" edge="1"><mxGeometry relative="1" as="geometry"/></mxCell><mxCell id="OpdNplUtQxuJoesoAGpr-75" value="" style="edgeStyle=none;rounded=0;jumpStyle=none;orthogonalLoop=1;jettySize=auto;html=1;startArrow=none;startFill=0;endArrow=none;endFill=0;strokeColor=#000000;strokeWidth=3;fontSize=55;fontStyle=1;fontFamily=Palatino;" parent="1" source="OpdNplUtQxuJoesoAGpr-76" target="OpdNplUtQxuJoesoAGpr-78" edge="1"><mxGeometry relative="1" as="geometry"/></mxCell><mxCell id="OpdNplUtQxuJoesoAGpr-76" value="95" style="ellipse;whiteSpace=wrap;html=1;aspect=fixed;rounded=1;shadow=0;glass=0;comic=0;strokeColor=#000000;fillColor=#000000;align=center;fontSize=55;labelPosition=center;verticalLabelPosition=bottom;verticalAlign=top;fontStyle=1;fontFamily=Palatino;" parent="1" vertex="1"><mxGeometry x="6318.43" y="2318" width="31" height="31" as="geometry"/></mxCell><mxCell id="OpdNplUtQxuJoesoAGpr-77" value="" style="edgeStyle=none;rounded=0;jumpStyle=none;orthogonalLoop=1;jettySize=auto;html=1;startArrow=none;startFill=0;endArrow=none;endFill=0;strokeColor=#000000;strokeWidth=3;fontSize=55;fontStyle=1;fontFamily=Palatino;" parent="1" source="OpdNplUtQxuJoesoAGpr-78" target="OpdNplUtQxuJoesoAGpr-79" edge="1"><mxGeometry relative="1" as="geometry"/></mxCell><mxCell id="OpdNplUtQxuJoesoAGpr-78" value="97" style="ellipse;whiteSpace=wrap;html=1;aspect=fixed;rounded=1;shadow=0;glass=0;comic=0;strokeColor=#000000;fillColor=#000000;align=center;fontSize=55;labelPosition=center;verticalLabelPosition=bottom;verticalAlign=top;fontStyle=1;fontFamily=Palatino;" parent="1" vertex="1"><mxGeometry x="6155.001428571429" y="2318" width="31" height="31" as="geometry"/></mxCell><mxCell id="OpdNplUtQxuJoesoAGpr-79" value="98" style="ellipse;whiteSpace=wrap;html=1;aspect=fixed;rounded=1;shadow=0;glass=0;comic=0;strokeColor=#000000;fillColor=#000000;align=center;fontSize=55;labelPosition=center;verticalLabelPosition=top;verticalAlign=bottom;fontStyle=1;fontFamily=Palatino;" parent="1" vertex="1"><mxGeometry x="6155.001428571429" y="2197" width="31" height="31" as="geometry"/></mxCell><mxCell id="OpdNplUtQxuJoesoAGpr-80" value="96" style="ellipse;whiteSpace=wrap;html=1;aspect=fixed;rounded=1;shadow=0;glass=0;comic=0;strokeColor=#000000;fillColor=#000000;align=center;fontSize=55;labelPosition=center;verticalLabelPosition=top;verticalAlign=bottom;fontStyle=1;fontFamily=Palatino;" parent="1" vertex="1"><mxGeometry x="6318.43" y="2197" width="31" height="31" as="geometry"/></mxCell><mxCell id="OpdNplUtQxuJoesoAGpr-81" value="94" style="ellipse;whiteSpace=wrap;html=1;aspect=fixed;rounded=1;shadow=0;glass=0;comic=0;strokeColor=#000000;fillColor=#000000;align=center;fontSize=55;labelPosition=center;verticalLabelPosition=top;verticalAlign=bottom;fontStyle=1;fontFamily=Palatino;" parent="1" vertex="1"><mxGeometry x="6481.43" y="2197" width="31" height="31" as="geometry"/></mxCell><mxCell id="OpdNplUtQxuJoesoAGpr-82" value="92" style="ellipse;whiteSpace=wrap;html=1;aspect=fixed;rounded=1;shadow=0;glass=0;comic=0;strokeColor=#000000;fillColor=#000000;align=center;fontSize=55;labelPosition=center;verticalLabelPosition=top;verticalAlign=bottom;fontStyle=1;fontFamily=Palatino;" parent="1" vertex="1"><mxGeometry x="6645.43" y="2197" width="31" height="31" as="geometry"/></mxCell><mxCell id="OpdNplUtQxuJoesoAGpr-83" value="90" style="ellipse;whiteSpace=wrap;html=1;aspect=fixed;rounded=1;shadow=0;glass=0;comic=0;strokeColor=#000000;fillColor=#000000;align=center;fontSize=55;labelPosition=center;verticalLabelPosition=top;verticalAlign=bottom;fontStyle=1;fontFamily=Palatino;" parent="1" vertex="1"><mxGeometry x="6808.43" y="2197" width="31" height="31" as="geometry"/></mxCell><mxCell id="OpdNplUtQxuJoesoAGpr-84" value="" style="edgeStyle=none;rounded=0;jumpStyle=none;orthogonalLoop=1;jettySize=auto;html=1;startArrow=none;startFill=0;endArrow=none;endFill=0;strokeColor=#000000;strokeWidth=3;fontSize=55;fontStyle=1;fontFamily=Palatino;" parent="1" source="OpdNplUtQxuJoesoAGpr-85" target="OpdNplUtQxuJoesoAGpr-88" edge="1"><mxGeometry relative="1" as="geometry"/></mxCell><mxCell id="OpdNplUtQxuJoesoAGpr-85" value="79" style="ellipse;whiteSpace=wrap;html=1;aspect=fixed;rounded=1;shadow=0;glass=0;comic=0;strokeColor=#000000;fillColor=#000000;align=center;fontSize=55;labelPosition=center;verticalLabelPosition=top;verticalAlign=bottom;fontStyle=1;fontFamily=Palatino;" parent="1" vertex="1"><mxGeometry x="7035.43" y="2024" width="31" height="31" as="geometry"/></mxCell><mxCell id="OpdNplUtQxuJoesoAGpr-86" value="" style="edgeStyle=none;rounded=0;jumpStyle=none;orthogonalLoop=1;jettySize=auto;html=1;startArrow=none;startFill=0;endArrow=none;endFill=0;strokeColor=#000000;strokeWidth=3;fontSize=55;fontStyle=1;fontFamily=Palatino;" parent="1" source="OpdNplUtQxuJoesoAGpr-88" target="OpdNplUtQxuJoesoAGpr-100" edge="1"><mxGeometry relative="1" as="geometry"/></mxCell><mxCell id="OpdNplUtQxuJoesoAGpr-87" value="" style="edgeStyle=none;rounded=0;jumpStyle=none;orthogonalLoop=1;jettySize=auto;html=1;startArrow=none;startFill=0;endArrow=none;endFill=0;strokeColor=#000000;strokeWidth=3;fontSize=55;fontStyle=1;fontFamily=Palatino;" parent="1" source="OpdNplUtQxuJoesoAGpr-88" target="OpdNplUtQxuJoesoAGpr-90" edge="1"><mxGeometry relative="1" as="geometry"/></mxCell><mxCell id="OpdNplUtQxuJoesoAGpr-88" value="80" style="ellipse;whiteSpace=wrap;html=1;aspect=fixed;rounded=1;shadow=0;glass=0;comic=0;strokeColor=#000000;fillColor=#000000;align=center;fontSize=55;labelPosition=center;verticalLabelPosition=top;verticalAlign=bottom;fontStyle=1;fontFamily=Palatino;" parent="1" vertex="1"><mxGeometry x="7103.43" y="1988" width="31" height="31" as="geometry"/></mxCell><mxCell id="OpdNplUtQxuJoesoAGpr-89" value="" style="edgeStyle=none;rounded=0;jumpStyle=none;orthogonalLoop=1;jettySize=auto;html=1;startArrow=none;startFill=0;endArrow=none;endFill=0;strokeColor=#000000;strokeWidth=3;fontSize=55;fontStyle=1;fontFamily=Palatino;" parent="1" source="OpdNplUtQxuJoesoAGpr-90" target="OpdNplUtQxuJoesoAGpr-93" edge="1"><mxGeometry relative="1" as="geometry"/></mxCell><mxCell id="OpdNplUtQxuJoesoAGpr-90" value="82" style="ellipse;whiteSpace=wrap;html=1;aspect=fixed;rounded=1;shadow=0;glass=0;comic=0;strokeColor=#000000;fillColor=#000000;align=right;fontSize=55;labelPosition=left;verticalLabelPosition=middle;verticalAlign=middle;fontStyle=1;fontFamily=Palatino;" parent="1" vertex="1"><mxGeometry x="7103.430000000001" y="2106" width="31" height="31" as="geometry"/></mxCell><mxCell id="OpdNplUtQxuJoesoAGpr-91" value="" style="edgeStyle=none;rounded=0;jumpStyle=none;orthogonalLoop=1;jettySize=auto;html=1;startArrow=none;startFill=0;endArrow=none;endFill=0;strokeColor=#000000;strokeWidth=3;fontSize=55;fontStyle=1;fontFamily=Palatino;" parent="1" source="OpdNplUtQxuJoesoAGpr-93" target="OpdNplUtQxuJoesoAGpr-98" edge="1"><mxGeometry relative="1" as="geometry"/></mxCell><mxCell id="OpdNplUtQxuJoesoAGpr-92" value="" style="edgeStyle=none;rounded=0;jumpStyle=none;orthogonalLoop=1;jettySize=auto;html=1;startArrow=none;startFill=0;endArrow=none;endFill=0;strokeColor=#000000;strokeWidth=3;fontSize=55;fontStyle=1;fontFamily=Palatino;" parent="1" source="OpdNplUtQxuJoesoAGpr-93" target="OpdNplUtQxuJoesoAGpr-95" edge="1"><mxGeometry relative="1" as="geometry"/></mxCell><mxCell id="OpdNplUtQxuJoesoAGpr-93" value="83" style="ellipse;whiteSpace=wrap;html=1;aspect=fixed;rounded=1;shadow=0;glass=0;comic=0;align=right;fontSize=55;labelPosition=left;verticalLabelPosition=middle;verticalAlign=middle;strokeWidth=1;fillColor=#000000;fontStyle=1;fontFamily=Palatino;" parent="1" vertex="1"><mxGeometry x="7103.43" y="2207" width="31" height="31" as="geometry"/></mxCell><mxCell id="OpdNplUtQxuJoesoAGpr-94" value="" style="edgeStyle=none;rounded=0;jumpStyle=none;orthogonalLoop=1;jettySize=auto;html=1;startArrow=none;startFill=0;endArrow=none;endFill=0;strokeColor=#000000;strokeWidth=3;fontSize=55;fontStyle=1;fontFamily=Palatino;" parent="1" source="OpdNplUtQxuJoesoAGpr-95" target="OpdNplUtQxuJoesoAGpr-96" edge="1"><mxGeometry relative="1" as="geometry"/></mxCell><mxCell id="OpdNplUtQxuJoesoAGpr-95" value="86" style="ellipse;whiteSpace=wrap;html=1;aspect=fixed;rounded=1;shadow=0;glass=0;comic=0;strokeColor=#000000;fillColor=#000000;align=left;fontSize=55;labelPosition=right;verticalLabelPosition=middle;verticalAlign=middle;fontStyle=1;fontFamily=Palatino;" parent="1" vertex="1"><mxGeometry x="7239.00142857143" y="2137" width="31" height="31" as="geometry"/></mxCell><mxCell id="OpdNplUtQxuJoesoAGpr-96" value="87" style="ellipse;whiteSpace=wrap;html=1;aspect=fixed;rounded=1;shadow=0;glass=0;comic=0;strokeColor=#000000;fillColor=#000000;align=left;fontSize=55;labelPosition=right;verticalLabelPosition=middle;verticalAlign=middle;fontStyle=1;fontFamily=Palatino;" parent="1" vertex="1"><mxGeometry x="7239.001428571429" y="1916" width="31" height="31" as="geometry"/></mxCell><mxCell id="OpdNplUtQxuJoesoAGpr-97" value="" style="edgeStyle=none;rounded=0;jumpStyle=none;orthogonalLoop=1;jettySize=auto;html=1;startArrow=none;startFill=0;endArrow=none;endFill=0;strokeColor=#000000;strokeWidth=3;fontSize=55;fontStyle=1;fontFamily=Palatino;" parent="1" source="OpdNplUtQxuJoesoAGpr-98" target="OpdNplUtQxuJoesoAGpr-99" edge="1"><mxGeometry relative="1" as="geometry"/></mxCell><mxCell id="OpdNplUtQxuJoesoAGpr-98" value="84" style="ellipse;whiteSpace=wrap;html=1;aspect=fixed;rounded=1;shadow=0;glass=0;comic=0;strokeColor=#000000;fillColor=#000000;align=center;fontSize=55;labelPosition=center;verticalLabelPosition=bottom;verticalAlign=top;fontStyle=1;fontFamily=Palatino;" parent="1" vertex="1"><mxGeometry x="7103.43" y="2318" width="31" height="31" as="geometry"/></mxCell><mxCell id="OpdNplUtQxuJoesoAGpr-99" value="85" style="ellipse;whiteSpace=wrap;html=1;aspect=fixed;rounded=1;shadow=0;glass=0;comic=0;strokeColor=#000000;fillColor=#000000;align=center;fontSize=55;labelPosition=center;verticalLabelPosition=bottom;verticalAlign=top;fontStyle=1;fontFamily=Palatino;" parent="1" vertex="1"><mxGeometry x="7239.001428571429" y="2316" width="31" height="31" as="geometry"/></mxCell><mxCell id="OpdNplUtQxuJoesoAGpr-100" value="81" style="ellipse;whiteSpace=wrap;html=1;aspect=fixed;rounded=1;shadow=0;glass=0;comic=0;strokeColor=#000000;fillColor=#000000;align=center;fontSize=55;labelPosition=center;verticalLabelPosition=top;verticalAlign=bottom;fontStyle=1;fontFamily=Palatino;" parent="1" vertex="1"><mxGeometry x="7171.43" y="1952" width="31" height="31" as="geometry"/></mxCell><mxCell id="OpdNplUtQxuJoesoAGpr-101" value="" style="edgeStyle=none;rounded=0;jumpStyle=none;orthogonalLoop=1;jettySize=auto;html=1;startArrow=none;startFill=0;endArrow=none;endFill=0;strokeColor=#000000;strokeWidth=3;fontSize=55;labelPosition=center;verticalLabelPosition=top;align=center;verticalAlign=bottom;fontStyle=1;fontFamily=Palatino;" parent="1" source="OpdNplUtQxuJoesoAGpr-102" target="OpdNplUtQxuJoesoAGpr-104" edge="1"><mxGeometry relative="1" as="geometry"/></mxCell><mxCell id="OpdNplUtQxuJoesoAGpr-102" value="75" style="ellipse;whiteSpace=wrap;html=1;aspect=fixed;rounded=1;shadow=0;glass=0;comic=0;strokeColor=#000000;fillColor=#000000;align=center;fontSize=55;labelPosition=center;verticalLabelPosition=top;verticalAlign=bottom;fontStyle=1;fontFamily=Palatino;" parent="1" vertex="1"><mxGeometry x="7027.43" y="1886" width="31" height="31" as="geometry"/></mxCell><mxCell id="OpdNplUtQxuJoesoAGpr-103" value="" style="edgeStyle=none;rounded=0;jumpStyle=none;orthogonalLoop=1;jettySize=auto;html=1;startArrow=none;startFill=0;endArrow=none;endFill=0;strokeColor=#000000;strokeWidth=3;fontSize=55;labelPosition=center;verticalLabelPosition=top;align=center;verticalAlign=bottom;fontStyle=1;fontFamily=Palatino;" parent="1" source="OpdNplUtQxuJoesoAGpr-104" target="OpdNplUtQxuJoesoAGpr-105" edge="1"><mxGeometry relative="1" as="geometry"/></mxCell><mxCell id="OpdNplUtQxuJoesoAGpr-104" value="76" style="ellipse;whiteSpace=wrap;html=1;aspect=fixed;rounded=1;shadow=0;glass=0;comic=0;strokeColor=#000000;fillColor=#000000;align=center;fontSize=55;labelPosition=center;verticalLabelPosition=top;verticalAlign=bottom;fontStyle=1;fontFamily=Palatino;" parent="1" vertex="1"><mxGeometry x="7133.43" y="1831" width="31" height="31" as="geometry"/></mxCell><mxCell id="OpdNplUtQxuJoesoAGpr-105" value="77" style="ellipse;whiteSpace=wrap;html=1;aspect=fixed;rounded=1;shadow=0;glass=0;comic=0;strokeColor=#000000;fillColor=#000000;align=left;fontSize=55;labelPosition=right;verticalLabelPosition=middle;verticalAlign=middle;fontStyle=1;fontFamily=Palatino;" parent="1" vertex="1"><mxGeometry x="7239.001428571429" y="1777" width="31" height="31" as="geometry"/></mxCell><mxCell id="OpdNplUtQxuJoesoAGpr-106" value="" style="edgeStyle=none;rounded=0;jumpStyle=none;orthogonalLoop=1;jettySize=auto;html=1;startArrow=none;startFill=0;endArrow=none;endFill=0;strokeColor=#000000;strokeWidth=3;fontSize=55;fontStyle=1;fontFamily=Palatino;" parent="1" source="OpdNplUtQxuJoesoAGpr-108" target="OpdNplUtQxuJoesoAGpr-117" edge="1"><mxGeometry relative="1" as="geometry"/></mxCell><mxCell id="OpdNplUtQxuJoesoAGpr-107" value="" style="edgeStyle=none;rounded=0;jumpStyle=none;orthogonalLoop=1;jettySize=auto;html=1;startArrow=none;startFill=0;endArrow=none;endFill=0;strokeColor=#000000;strokeWidth=3;fontSize=55;fontStyle=1;fontFamily=Palatino;" parent="1" source="OpdNplUtQxuJoesoAGpr-108" target="OpdNplUtQxuJoesoAGpr-110" edge="1"><mxGeometry relative="1" as="geometry"/></mxCell><mxCell id="OpdNplUtQxuJoesoAGpr-108" value="99" style="ellipse;whiteSpace=wrap;html=1;aspect=fixed;rounded=1;shadow=0;glass=0;comic=0;align=right;labelPosition=left;verticalLabelPosition=middle;verticalAlign=middle;fontSize=55;strokeWidth=1;fillColor=#000000;fontStyle=1;fontFamily=Palatino;" parent="1" vertex="1"><mxGeometry x="6829.43" y="1701" width="31" height="31" as="geometry"/></mxCell><mxCell id="OpdNplUtQxuJoesoAGpr-109" value="" style="edgeStyle=none;rounded=0;jumpStyle=none;orthogonalLoop=1;jettySize=auto;html=1;startArrow=none;startFill=0;endArrow=none;endFill=0;strokeColor=#000000;strokeWidth=3;fontSize=55;fontStyle=1;fontFamily=Palatino;" parent="1" source="OpdNplUtQxuJoesoAGpr-110" target="OpdNplUtQxuJoesoAGpr-112" edge="1"><mxGeometry relative="1" as="geometry"/></mxCell><mxCell id="OpdNplUtQxuJoesoAGpr-110" value="100" style="ellipse;whiteSpace=wrap;html=1;aspect=fixed;rounded=1;shadow=0;glass=0;comic=0;strokeColor=#000000;fillColor=#000000;align=center;fontSize=55;labelPosition=center;verticalLabelPosition=top;verticalAlign=bottom;fontStyle=1;fontFamily=Palatino;" parent="1" vertex="1"><mxGeometry x="6931.43" y="1643" width="31" height="31" as="geometry"/></mxCell><mxCell id="OpdNplUtQxuJoesoAGpr-111" value="" style="edgeStyle=none;rounded=0;jumpStyle=none;orthogonalLoop=1;jettySize=auto;html=1;startArrow=none;startFill=0;endArrow=none;endFill=0;strokeColor=#000000;strokeWidth=3;fontSize=55;labelPosition=center;verticalLabelPosition=top;align=center;verticalAlign=bottom;fontStyle=1;fontFamily=Palatino;" parent="1" source="OpdNplUtQxuJoesoAGpr-112" target="OpdNplUtQxuJoesoAGpr-114" edge="1"><mxGeometry relative="1" as="geometry"/></mxCell><mxCell id="OpdNplUtQxuJoesoAGpr-112" value="101" style="ellipse;whiteSpace=wrap;html=1;aspect=fixed;rounded=1;shadow=0;glass=0;comic=0;strokeColor=#000000;fillColor=#000000;align=center;fontSize=55;labelPosition=center;verticalLabelPosition=top;verticalAlign=bottom;fontStyle=1;fontFamily=Palatino;" parent="1" vertex="1"><mxGeometry x="7034.43" y="1585" width="31" height="31" as="geometry"/></mxCell><mxCell id="OpdNplUtQxuJoesoAGpr-113" value="" style="edgeStyle=none;rounded=0;jumpStyle=none;orthogonalLoop=1;jettySize=auto;html=1;startArrow=none;startFill=0;endArrow=none;endFill=0;strokeColor=#000000;strokeWidth=3;fontSize=55;labelPosition=center;verticalLabelPosition=top;align=center;verticalAlign=bottom;fontStyle=1;fontFamily=Palatino;" parent="1" source="OpdNplUtQxuJoesoAGpr-114" target="OpdNplUtQxuJoesoAGpr-115" edge="1"><mxGeometry relative="1" as="geometry"/></mxCell><mxCell id="OpdNplUtQxuJoesoAGpr-114" value="102" style="ellipse;whiteSpace=wrap;html=1;aspect=fixed;rounded=1;shadow=0;glass=0;comic=0;strokeColor=#000000;fillColor=#000000;align=center;fontSize=55;labelPosition=center;verticalLabelPosition=top;verticalAlign=bottom;fontStyle=1;fontFamily=Palatino;" parent="1" vertex="1"><mxGeometry x="7136.43" y="1527" width="31" height="31" as="geometry"/></mxCell><mxCell id="OpdNplUtQxuJoesoAGpr-115" value="123" style="ellipse;whiteSpace=wrap;html=1;aspect=fixed;rounded=1;shadow=0;glass=0;comic=0;strokeColor=#000000;fillColor=#000000;align=center;fontSize=55;labelPosition=center;verticalLabelPosition=bottom;verticalAlign=top;fontStyle=1;fontFamily=Palatino;" parent="1" vertex="1"><mxGeometry x="7239.001428571429" y="1469" width="31" height="31" as="geometry"/></mxCell><mxCell id="OpdNplUtQxuJoesoAGpr-116" value="" style="edgeStyle=none;rounded=0;jumpStyle=none;orthogonalLoop=1;jettySize=auto;html=1;startArrow=none;startFill=0;endArrow=none;endFill=0;strokeColor=#000000;strokeWidth=3;fontSize=55;fontStyle=1;fontFamily=Palatino;" parent="1" source="OpdNplUtQxuJoesoAGpr-117" target="OpdNplUtQxuJoesoAGpr-120" edge="1"><mxGeometry relative="1" as="geometry"/></mxCell><mxCell id="OpdNplUtQxuJoesoAGpr-117" value="124" style="ellipse;whiteSpace=wrap;html=1;aspect=fixed;rounded=1;shadow=0;glass=0;comic=0;strokeColor=#000000;fillColor=#000000;align=right;fontSize=55;labelPosition=left;verticalLabelPosition=middle;verticalAlign=middle;fontStyle=1;fontFamily=Palatino;" parent="1" vertex="1"><mxGeometry x="6806.43" y="1642" width="31" height="31" as="geometry"/></mxCell><mxCell id="OpdNplUtQxuJoesoAGpr-118" value="" style="edgeStyle=none;rounded=0;jumpStyle=none;orthogonalLoop=1;jettySize=auto;html=1;startArrow=none;startFill=0;endArrow=none;endFill=0;strokeColor=#000000;strokeWidth=3;fontSize=55;fontStyle=1;fontFamily=Palatino;" parent="1" source="OpdNplUtQxuJoesoAGpr-120" target="OpdNplUtQxuJoesoAGpr-143" edge="1"><mxGeometry relative="1" as="geometry"/></mxCell><mxCell id="OpdNplUtQxuJoesoAGpr-119" value="" style="edgeStyle=none;rounded=0;jumpStyle=none;orthogonalLoop=1;jettySize=auto;html=1;startArrow=none;startFill=0;endArrow=none;endFill=0;strokeColor=#000000;strokeWidth=3;fontSize=55;fontStyle=1;fontFamily=Palatino;" parent="1" source="OpdNplUtQxuJoesoAGpr-120" target="OpdNplUtQxuJoesoAGpr-123" edge="1"><mxGeometry relative="1" as="geometry"/></mxCell><mxCell id="OpdNplUtQxuJoesoAGpr-120" value="103" style="ellipse;whiteSpace=wrap;html=1;aspect=fixed;rounded=1;shadow=0;glass=0;comic=0;strokeColor=#000000;fillColor=#000000;align=right;fontSize=55;labelPosition=left;verticalLabelPosition=middle;verticalAlign=middle;fontStyle=1;fontFamily=Palatino;" parent="1" vertex="1"><mxGeometry x="6782.43" y="1582" width="31" height="31" as="geometry"/></mxCell><mxCell id="OpdNplUtQxuJoesoAGpr-121" value="" style="edgeStyle=none;rounded=0;jumpStyle=none;orthogonalLoop=1;jettySize=auto;html=1;startArrow=none;startFill=0;endArrow=none;endFill=0;strokeColor=#000000;strokeWidth=3;fontSize=55;fontStyle=1;fontFamily=Palatino;" parent="1" source="OpdNplUtQxuJoesoAGpr-123" target="OpdNplUtQxuJoesoAGpr-140" edge="1"><mxGeometry relative="1" as="geometry"/></mxCell><mxCell id="OpdNplUtQxuJoesoAGpr-122" value="" style="edgeStyle=none;rounded=0;jumpStyle=none;orthogonalLoop=1;jettySize=auto;html=1;startArrow=none;startFill=0;endArrow=none;endFill=0;strokeColor=#000000;strokeWidth=3;fontSize=55;fontStyle=1;fontFamily=Palatino;" parent="1" source="OpdNplUtQxuJoesoAGpr-123" target="OpdNplUtQxuJoesoAGpr-126" edge="1"><mxGeometry relative="1" as="geometry"/></mxCell><mxCell id="OpdNplUtQxuJoesoAGpr-123" value="107" style="ellipse;whiteSpace=wrap;html=1;aspect=fixed;rounded=1;shadow=0;glass=0;comic=0;align=right;strokeWidth=7;fontSize=55;labelPosition=left;verticalLabelPosition=middle;verticalAlign=middle;fillColor=#d5e8d4;strokeColor=#82b366;fontStyle=1;fontFamily=Palatino;" parent="1" vertex="1"><mxGeometry x="6736.43" y="1462" width="31" height="31" as="geometry"/></mxCell><mxCell id="OpdNplUtQxuJoesoAGpr-124" value="" style="edgeStyle=none;rounded=0;jumpStyle=none;orthogonalLoop=1;jettySize=auto;html=1;startArrow=none;startFill=0;endArrow=none;endFill=0;strokeColor=#000000;strokeWidth=3;fontSize=55;fontStyle=1;fontFamily=Palatino;" parent="1" source="OpdNplUtQxuJoesoAGpr-126" target="OpdNplUtQxuJoesoAGpr-129" edge="1"><mxGeometry relative="1" as="geometry"/></mxCell><mxCell id="OpdNplUtQxuJoesoAGpr-125" value="" style="edgeStyle=none;rounded=0;jumpStyle=none;orthogonalLoop=1;jettySize=auto;html=1;startArrow=none;startFill=0;endArrow=none;endFill=0;strokeColor=#000000;strokeWidth=3;fontSize=55;fontStyle=1;fontFamily=Palatino;" parent="1" source="OpdNplUtQxuJoesoAGpr-126" target="OpdNplUtQxuJoesoAGpr-127" edge="1"><mxGeometry relative="1" as="geometry"/></mxCell><mxCell id="OpdNplUtQxuJoesoAGpr-126" value="110" style="ellipse;whiteSpace=wrap;html=1;aspect=fixed;rounded=1;shadow=0;glass=0;comic=0;align=right;fontSize=55;labelPosition=left;verticalLabelPosition=middle;verticalAlign=middle;strokeWidth=1;fillColor=#000000;fontStyle=1;fontFamily=Palatino;" parent="1" vertex="1"><mxGeometry x="6689.43" y="1343" width="31" height="31" as="geometry"/></mxCell><mxCell id="OpdNplUtQxuJoesoAGpr-127" value="121" style="ellipse;whiteSpace=wrap;html=1;aspect=fixed;rounded=1;shadow=0;glass=0;comic=0;strokeColor=#000000;fillColor=#000000;align=right;fontSize=55;labelPosition=left;verticalLabelPosition=middle;verticalAlign=middle;fontStyle=1;fontFamily=Palatino;" parent="1" vertex="1"><mxGeometry x="6643.501428571429" y="1223" width="31" height="31" as="geometry"/></mxCell><mxCell id="OpdNplUtQxuJoesoAGpr-128" value="" style="edgeStyle=none;rounded=0;jumpStyle=none;orthogonalLoop=1;jettySize=auto;html=1;startArrow=none;startFill=0;endArrow=none;endFill=0;strokeColor=#000000;strokeWidth=3;fontSize=55;fontStyle=1;fontFamily=Palatino;" parent="1" source="OpdNplUtQxuJoesoAGpr-129" target="OpdNplUtQxuJoesoAGpr-132" edge="1"><mxGeometry relative="1" as="geometry"/></mxCell><mxCell id="OpdNplUtQxuJoesoAGpr-129" value="111" style="ellipse;whiteSpace=wrap;html=1;aspect=fixed;rounded=1;shadow=0;glass=0;comic=0;strokeColor=#000000;fillColor=#000000;align=center;fontSize=55;labelPosition=center;verticalLabelPosition=bottom;verticalAlign=top;fontStyle=1;fontFamily=Palatino;" parent="1" vertex="1"><mxGeometry x="6792.43" y="1283" width="31" height="31" as="geometry"/></mxCell><mxCell id="OpdNplUtQxuJoesoAGpr-130" value="" style="edgeStyle=none;rounded=0;jumpStyle=none;orthogonalLoop=1;jettySize=auto;html=1;startArrow=none;startFill=0;endArrow=none;endFill=0;strokeColor=#000000;strokeWidth=3;fontSize=55;fontStyle=1;fontFamily=Palatino;" parent="1" source="OpdNplUtQxuJoesoAGpr-132" target="OpdNplUtQxuJoesoAGpr-138" edge="1"><mxGeometry relative="1" as="geometry"/></mxCell><mxCell id="OpdNplUtQxuJoesoAGpr-131" value="" style="edgeStyle=none;rounded=0;jumpStyle=none;orthogonalLoop=1;jettySize=auto;html=1;startArrow=none;startFill=0;endArrow=none;endFill=0;strokeColor=#000000;strokeWidth=3;fontSize=55;fontStyle=1;fontFamily=Palatino;" parent="1" source="OpdNplUtQxuJoesoAGpr-132" target="OpdNplUtQxuJoesoAGpr-134" edge="1"><mxGeometry relative="1" as="geometry"/></mxCell><mxCell id="OpdNplUtQxuJoesoAGpr-132" value="112" style="ellipse;whiteSpace=wrap;html=1;aspect=fixed;rounded=1;shadow=0;glass=0;comic=0;strokeColor=#000000;fillColor=#000000;align=center;fontSize=55;labelPosition=center;verticalLabelPosition=top;verticalAlign=bottom;fontStyle=1;fontFamily=Palatino;" parent="1" vertex="1"><mxGeometry x="6895.43" y="1223" width="31" height="31" as="geometry"/></mxCell><mxCell id="OpdNplUtQxuJoesoAGpr-133" value="" style="edgeStyle=none;rounded=0;jumpStyle=none;orthogonalLoop=1;jettySize=auto;html=1;startArrow=none;startFill=0;endArrow=none;endFill=0;strokeColor=#000000;strokeWidth=3;fontSize=55;labelPosition=center;verticalLabelPosition=top;align=center;verticalAlign=bottom;fontStyle=1;fontFamily=Palatino;" parent="1" source="OpdNplUtQxuJoesoAGpr-134" target="OpdNplUtQxuJoesoAGpr-136" edge="1"><mxGeometry relative="1" as="geometry"/></mxCell><mxCell id="OpdNplUtQxuJoesoAGpr-134" value="114" style="ellipse;whiteSpace=wrap;html=1;aspect=fixed;rounded=1;shadow=0;glass=0;comic=0;strokeColor=#000000;fillColor=#000000;align=center;fontSize=55;labelPosition=center;verticalLabelPosition=top;verticalAlign=bottom;fontStyle=1;fontFamily=Palatino;" parent="1" vertex="1"><mxGeometry x="7021.43" y="1223" width="31" height="31" as="geometry"/></mxCell><mxCell id="OpdNplUtQxuJoesoAGpr-135" value="" style="edgeStyle=none;rounded=0;jumpStyle=none;orthogonalLoop=1;jettySize=auto;html=1;startArrow=none;startFill=0;endArrow=none;endFill=0;strokeColor=#000000;strokeWidth=3;fontSize=55;labelPosition=center;verticalLabelPosition=top;align=center;verticalAlign=bottom;fontStyle=1;fontFamily=Palatino;" parent="1" source="OpdNplUtQxuJoesoAGpr-136" target="OpdNplUtQxuJoesoAGpr-137" edge="1"><mxGeometry relative="1" as="geometry"/></mxCell><mxCell id="OpdNplUtQxuJoesoAGpr-136" value="115" style="ellipse;whiteSpace=wrap;html=1;aspect=fixed;rounded=1;shadow=0;glass=0;comic=0;strokeColor=#000000;fillColor=#000000;align=center;fontSize=55;labelPosition=center;verticalLabelPosition=top;verticalAlign=bottom;fontStyle=1;fontFamily=Palatino;" parent="1" vertex="1"><mxGeometry x="7147.43" y="1223" width="31" height="31" as="geometry"/></mxCell><mxCell id="OpdNplUtQxuJoesoAGpr-137" value="116" style="ellipse;whiteSpace=wrap;html=1;aspect=fixed;rounded=1;shadow=0;glass=0;comic=0;strokeColor=#000000;fillColor=#000000;align=center;fontSize=55;labelPosition=center;verticalLabelPosition=top;verticalAlign=bottom;fontStyle=1;fontFamily=Palatino;" parent="1" vertex="1"><mxGeometry x="7273.001428571429" y="1223" width="31" height="31" as="geometry"/></mxCell><mxCell id="OpdNplUtQxuJoesoAGpr-138" value="113" style="ellipse;whiteSpace=wrap;html=1;aspect=fixed;rounded=1;shadow=0;glass=0;comic=0;strokeColor=#000000;fillColor=#000000;align=center;fontSize=55;labelPosition=center;verticalLabelPosition=top;verticalAlign=bottom;fontStyle=1;fontFamily=Palatino;" parent="1" vertex="1"><mxGeometry x="6769.43" y="1223" width="31" height="31" as="geometry"/></mxCell><mxCell id="OpdNplUtQxuJoesoAGpr-139" value="" style="edgeStyle=none;rounded=0;jumpStyle=none;orthogonalLoop=1;jettySize=auto;html=1;startArrow=none;startFill=0;endArrow=none;endFill=0;strokeColor=#000000;strokeWidth=3;fontSize=55;fontStyle=1;fontFamily=Palatino;" parent="1" source="OpdNplUtQxuJoesoAGpr-140" target="OpdNplUtQxuJoesoAGpr-141" edge="1"><mxGeometry relative="1" as="geometry"/></mxCell><mxCell id="OpdNplUtQxuJoesoAGpr-140" value="108" style="ellipse;whiteSpace=wrap;html=1;aspect=fixed;rounded=1;shadow=0;glass=0;comic=0;strokeColor=#000000;fillColor=#000000;align=center;fontSize=55;labelPosition=center;verticalLabelPosition=top;verticalAlign=bottom;fontStyle=1;fontFamily=Palatino;" parent="1" vertex="1"><mxGeometry x="6879.43" y="1386" width="31" height="31" as="geometry"/></mxCell><mxCell id="OpdNplUtQxuJoesoAGpr-141" value="109" style="ellipse;whiteSpace=wrap;html=1;aspect=fixed;rounded=1;shadow=0;glass=0;comic=0;strokeColor=#000000;fillColor=#000000;align=left;fontSize=55;labelPosition=right;verticalLabelPosition=middle;verticalAlign=middle;fontStyle=1;fontFamily=Palatino;" parent="1" vertex="1"><mxGeometry x="7021.501428571429" y="1309.5" width="31" height="31" as="geometry"/></mxCell><mxCell id="OpdNplUtQxuJoesoAGpr-142" value="" style="edgeStyle=none;rounded=0;jumpStyle=none;orthogonalLoop=1;jettySize=auto;html=1;startArrow=none;startFill=0;endArrow=none;endFill=0;strokeColor=#000000;strokeWidth=3;fontSize=55;fontStyle=1;fontFamily=Palatino;" parent="1" source="OpdNplUtQxuJoesoAGpr-143" target="OpdNplUtQxuJoesoAGpr-145" edge="1"><mxGeometry relative="1" as="geometry"/></mxCell><mxCell id="OpdNplUtQxuJoesoAGpr-143" value="104" style="ellipse;whiteSpace=wrap;html=1;aspect=fixed;rounded=1;shadow=0;glass=0;comic=0;strokeColor=#000000;fillColor=#000000;align=center;fontSize=55;labelPosition=center;verticalLabelPosition=top;verticalAlign=bottom;fontStyle=1;fontFamily=Palatino;" parent="1" vertex="1"><mxGeometry x="6901.43" y="1512" width="31" height="31" as="geometry"/></mxCell><mxCell id="OpdNplUtQxuJoesoAGpr-144" value="" style="edgeStyle=none;rounded=0;jumpStyle=none;orthogonalLoop=1;jettySize=auto;html=1;startArrow=none;startFill=0;endArrow=none;endFill=0;strokeColor=#000000;strokeWidth=3;fontSize=55;labelPosition=center;verticalLabelPosition=top;align=center;verticalAlign=bottom;fontStyle=1;fontFamily=Palatino;" parent="1" source="OpdNplUtQxuJoesoAGpr-145" target="OpdNplUtQxuJoesoAGpr-146" edge="1"><mxGeometry relative="1" as="geometry"/></mxCell><mxCell id="OpdNplUtQxuJoesoAGpr-145" value="105" style="ellipse;whiteSpace=wrap;html=1;aspect=fixed;rounded=1;shadow=0;glass=0;comic=0;strokeColor=#000000;fillColor=#000000;align=center;fontSize=55;labelPosition=center;verticalLabelPosition=top;verticalAlign=bottom;fontStyle=1;fontFamily=Palatino;" parent="1" vertex="1"><mxGeometry x="7020.43" y="1442" width="31" height="31" as="geometry"/></mxCell><mxCell id="OpdNplUtQxuJoesoAGpr-146" value="106" style="ellipse;whiteSpace=wrap;html=1;aspect=fixed;rounded=1;shadow=0;glass=0;comic=0;strokeColor=#000000;fillColor=#000000;align=left;fontSize=55;labelPosition=right;verticalLabelPosition=middle;verticalAlign=middle;fontStyle=1;fontFamily=Palatino;" parent="1" vertex="1"><mxGeometry x="7140.001428571429" y="1371.5" width="31" height="31" as="geometry"/></mxCell><mxCell id="OpdNplUtQxuJoesoAGpr-147" value="" style="edgeStyle=none;rounded=0;jumpStyle=none;orthogonalLoop=1;jettySize=auto;html=1;startArrow=none;startFill=0;endArrow=none;endFill=0;strokeColor=#000000;strokeWidth=3;fontSize=55;labelPosition=center;verticalLabelPosition=top;align=center;verticalAlign=bottom;fontStyle=1;fontFamily=Palatino;" parent="1" source="OpdNplUtQxuJoesoAGpr-148" target="OpdNplUtQxuJoesoAGpr-150" edge="1"><mxGeometry relative="1" as="geometry"/></mxCell><mxCell id="OpdNplUtQxuJoesoAGpr-148" value="70" style="ellipse;whiteSpace=wrap;html=1;aspect=fixed;rounded=1;shadow=0;glass=0;comic=0;strokeColor=#000000;fillColor=#000000;align=center;fontSize=55;labelPosition=center;verticalLabelPosition=top;verticalAlign=bottom;fontStyle=1;fontFamily=Palatino;" parent="1" vertex="1"><mxGeometry x="6966.43" y="1770" width="31" height="31" as="geometry"/></mxCell><mxCell id="OpdNplUtQxuJoesoAGpr-149" value="" style="edgeStyle=none;rounded=0;jumpStyle=none;orthogonalLoop=1;jettySize=auto;html=1;startArrow=none;startFill=0;endArrow=none;endFill=0;strokeColor=#000000;strokeWidth=3;fontSize=55;labelPosition=center;verticalLabelPosition=top;align=center;verticalAlign=bottom;fontStyle=1;fontFamily=Palatino;" parent="1" source="OpdNplUtQxuJoesoAGpr-150" target="OpdNplUtQxuJoesoAGpr-152" edge="1"><mxGeometry relative="1" as="geometry"/></mxCell><mxCell id="OpdNplUtQxuJoesoAGpr-150" value="71" style="ellipse;whiteSpace=wrap;html=1;aspect=fixed;rounded=1;shadow=0;glass=0;comic=0;strokeColor=#000000;fillColor=#000000;align=center;fontSize=55;labelPosition=center;verticalLabelPosition=top;verticalAlign=bottom;fontStyle=1;fontFamily=Palatino;" parent="1" vertex="1"><mxGeometry x="7057.43" y="1718" width="31" height="31" as="geometry"/></mxCell><mxCell id="OpdNplUtQxuJoesoAGpr-151" value="" style="edgeStyle=none;rounded=0;jumpStyle=none;orthogonalLoop=1;jettySize=auto;html=1;startArrow=none;startFill=0;endArrow=none;endFill=0;strokeColor=#000000;strokeWidth=3;fontSize=55;labelPosition=center;verticalLabelPosition=top;align=center;verticalAlign=bottom;fontStyle=1;fontFamily=Palatino;" parent="1" source="OpdNplUtQxuJoesoAGpr-152" target="OpdNplUtQxuJoesoAGpr-153" edge="1"><mxGeometry relative="1" as="geometry"/></mxCell><mxCell id="OpdNplUtQxuJoesoAGpr-152" value="72" style="ellipse;whiteSpace=wrap;html=1;aspect=fixed;rounded=1;shadow=0;glass=0;comic=0;strokeColor=#000000;fillColor=#000000;align=center;fontSize=55;labelPosition=center;verticalLabelPosition=top;verticalAlign=bottom;fontStyle=1;fontFamily=Palatino;" parent="1" vertex="1"><mxGeometry x="7148.43" y="1667" width="31" height="31" as="geometry"/></mxCell><mxCell id="OpdNplUtQxuJoesoAGpr-153" value="73" style="ellipse;whiteSpace=wrap;html=1;aspect=fixed;rounded=1;shadow=0;glass=0;comic=0;strokeColor=#000000;fillColor=#000000;align=left;fontSize=55;labelPosition=right;verticalLabelPosition=middle;verticalAlign=middle;fontStyle=1;fontFamily=Palatino;" parent="1" vertex="1"><mxGeometry x="7239.001428571429" y="1615" width="31" height="31" as="geometry"/></mxCell><mxCell id="OpdNplUtQxuJoesoAGpr-154" value="" style="edgeStyle=none;rounded=0;jumpStyle=none;orthogonalLoop=1;jettySize=auto;html=1;startArrow=none;startFill=0;endArrow=none;endFill=0;strokeColor=#000000;strokeWidth=3;fontSize=55;fontStyle=1;fontFamily=Palatino;" parent="1" source="OpdNplUtQxuJoesoAGpr-155" target="OpdNplUtQxuJoesoAGpr-157" edge="1"><mxGeometry relative="1" as="geometry"/></mxCell><mxCell id="OpdNplUtQxuJoesoAGpr-155" value="64" style="ellipse;whiteSpace=wrap;html=1;aspect=fixed;rounded=1;shadow=0;glass=0;comic=0;align=right;fontSize=55;labelPosition=left;verticalLabelPosition=middle;verticalAlign=middle;strokeWidth=1;fillColor=#000000;fontStyle=1;fontFamily=Palatino;" parent="1" vertex="1"><mxGeometry x="6503.43" y="1682" width="31" height="31" as="geometry"/></mxCell><mxCell id="OpdNplUtQxuJoesoAGpr-156" value="" style="edgeStyle=none;rounded=0;jumpStyle=none;orthogonalLoop=1;jettySize=auto;html=1;startArrow=none;startFill=0;endArrow=none;endFill=0;strokeColor=#000000;strokeWidth=3;fontSize=55;fontStyle=1;fontFamily=Palatino;" parent="1" source="OpdNplUtQxuJoesoAGpr-157" target="OpdNplUtQxuJoesoAGpr-159" edge="1"><mxGeometry relative="1" as="geometry"/></mxCell><mxCell id="OpdNplUtQxuJoesoAGpr-157" value="65" style="ellipse;whiteSpace=wrap;html=1;aspect=fixed;rounded=1;shadow=0;glass=0;comic=0;strokeColor=#000000;fillColor=#000000;align=right;fontSize=55;labelPosition=left;verticalLabelPosition=middle;verticalAlign=middle;fontStyle=1;fontFamily=Palatino;" parent="1" vertex="1"><mxGeometry x="6466.43" y="1550" width="31" height="31" as="geometry"/></mxCell><mxCell id="OpdNplUtQxuJoesoAGpr-158" value="" style="edgeStyle=none;rounded=0;jumpStyle=none;orthogonalLoop=1;jettySize=auto;html=1;startArrow=none;startFill=0;endArrow=none;endFill=0;strokeColor=#000000;strokeWidth=3;fontSize=55;fontStyle=1;fontFamily=Palatino;" parent="1" source="OpdNplUtQxuJoesoAGpr-159" target="OpdNplUtQxuJoesoAGpr-161" edge="1"><mxGeometry relative="1" as="geometry"/></mxCell><mxCell id="OpdNplUtQxuJoesoAGpr-159" value="66" style="ellipse;whiteSpace=wrap;html=1;aspect=fixed;rounded=1;shadow=0;glass=0;comic=0;strokeColor=#000000;fillColor=#000000;align=right;fontSize=55;labelPosition=left;verticalLabelPosition=middle;verticalAlign=middle;fontStyle=1;fontFamily=Palatino;" parent="1" vertex="1"><mxGeometry x="6429.001428571429" y="1417" width="31" height="31" as="geometry"/></mxCell><mxCell id="OpdNplUtQxuJoesoAGpr-160" value="" style="edgeStyle=none;rounded=0;jumpStyle=none;orthogonalLoop=1;jettySize=auto;html=1;startArrow=none;startFill=0;endArrow=none;endFill=0;strokeColor=#000000;strokeWidth=3;fontSize=55;fontStyle=1;fontFamily=Palatino;" parent="1" source="OpdNplUtQxuJoesoAGpr-161" target="OpdNplUtQxuJoesoAGpr-162" edge="1"><mxGeometry relative="1" as="geometry"/></mxCell><mxCell id="OpdNplUtQxuJoesoAGpr-161" value="67" style="ellipse;whiteSpace=wrap;html=1;aspect=fixed;rounded=1;shadow=0;glass=0;comic=0;strokeColor=#82b366;fillColor=#d5e8d4;align=right;strokeWidth=7;fontSize=55;labelPosition=left;verticalLabelPosition=middle;verticalAlign=middle;fontStyle=1;fontFamily=Palatino;" parent="1" vertex="1"><mxGeometry x="6329.001428571429" y="1463" width="31" height="31" as="geometry"/></mxCell><mxCell id="OpdNplUtQxuJoesoAGpr-162" value="68" style="ellipse;whiteSpace=wrap;html=1;aspect=fixed;rounded=1;shadow=0;glass=0;comic=0;strokeColor=#000000;fillColor=#000000;align=right;fontSize=55;labelPosition=left;verticalLabelPosition=middle;verticalAlign=middle;fontStyle=1;fontFamily=Palatino;" parent="1" vertex="1"><mxGeometry x="6357.001428571429" y="1548" width="31" height="31" as="geometry"/></mxCell><mxCell id="OpdNplUtQxuJoesoAGpr-163" value="" style="edgeStyle=none;rounded=0;jumpStyle=none;orthogonalLoop=1;jettySize=auto;html=1;startArrow=none;startFill=0;endArrow=none;endFill=0;strokeColor=#000000;strokeWidth=3;fontSize=55;fontStyle=1;fontFamily=Palatino;" parent="1" source="OpdNplUtQxuJoesoAGpr-164" target="OpdNplUtQxuJoesoAGpr-165" edge="1"><mxGeometry relative="1" as="geometry"/></mxCell><mxCell id="OpdNplUtQxuJoesoAGpr-164" value="63" style="ellipse;whiteSpace=wrap;html=1;aspect=fixed;rounded=1;shadow=0;glass=0;comic=0;strokeColor=#000000;fillColor=#000000;align=center;fontSize=55;labelPosition=center;verticalLabelPosition=bottom;verticalAlign=top;fontStyle=1;fontFamily=Palatino;" parent="1" vertex="1"><mxGeometry x="6578.001428571429" y="1947" width="31" height="31" as="geometry"/></mxCell><mxCell id="OpdNplUtQxuJoesoAGpr-165" value="122" style="ellipse;whiteSpace=wrap;html=1;aspect=fixed;rounded=1;shadow=0;glass=0;comic=0;strokeColor=#000000;fillColor=#000000;align=center;fontSize=55;labelPosition=center;verticalLabelPosition=bottom;verticalAlign=top;fontStyle=1;fontFamily=Palatino;" parent="1" vertex="1"><mxGeometry x="6654.001428571429" y="1937" width="31" height="31" as="geometry"/></mxCell><mxCell id="OpdNplUtQxuJoesoAGpr-166" value="" style="edgeStyle=none;rounded=0;jumpStyle=none;orthogonalLoop=1;jettySize=auto;html=1;startArrow=none;startFill=0;endArrow=none;endFill=0;strokeColor=#000000;strokeWidth=3;fontSize=55;fontStyle=1;fontFamily=Palatino;" parent="1" source="OpdNplUtQxuJoesoAGpr-167" target="OpdNplUtQxuJoesoAGpr-168" edge="1"><mxGeometry relative="1" as="geometry"/></mxCell><mxCell id="OpdNplUtQxuJoesoAGpr-167" value="60" style="ellipse;whiteSpace=wrap;html=1;aspect=fixed;rounded=1;shadow=0;glass=0;comic=0;strokeColor=#000000;fillColor=#000000;align=center;fontSize=55;labelPosition=center;verticalLabelPosition=top;verticalAlign=bottom;fontStyle=1;fontFamily=Palatino;" parent="1" vertex="1"><mxGeometry x="6127.43" y="1916" width="31" height="31" as="geometry"/></mxCell><mxCell id="OpdNplUtQxuJoesoAGpr-168" value="61" style="ellipse;whiteSpace=wrap;html=1;aspect=fixed;rounded=1;shadow=0;glass=0;comic=0;strokeColor=#000000;fillColor=#000000;align=center;fontSize=55;labelPosition=center;verticalLabelPosition=top;verticalAlign=bottom;fontStyle=1;fontFamily=Palatino;" parent="1" vertex="1"><mxGeometry x="5982.501428571429" y="1946" width="31" height="31" as="geometry"/></mxCell><mxCell id="OpdNplUtQxuJoesoAGpr-169" value="" style="edgeStyle=none;rounded=0;jumpStyle=none;orthogonalLoop=1;jettySize=auto;html=1;startArrow=none;startFill=0;endArrow=none;endFill=0;strokeColor=#000000;strokeWidth=3;fontSize=55;fontStyle=1;fontFamily=Palatino;" parent="1" source="OpdNplUtQxuJoesoAGpr-170" target="OpdNplUtQxuJoesoAGpr-171" edge="1"><mxGeometry relative="1" as="geometry"/></mxCell><mxCell id="OpdNplUtQxuJoesoAGpr-170" value="57" style="ellipse;whiteSpace=wrap;html=1;aspect=fixed;rounded=1;shadow=0;glass=0;comic=0;strokeColor=#000000;fillColor=#000000;align=center;fontSize=55;labelPosition=center;verticalLabelPosition=top;verticalAlign=bottom;fontStyle=1;fontFamily=Palatino;" parent="1" vertex="1"><mxGeometry x="6401.43" y="1983" width="31" height="31" as="geometry"/></mxCell><mxCell id="OpdNplUtQxuJoesoAGpr-171" value="58" style="ellipse;whiteSpace=wrap;html=1;aspect=fixed;rounded=1;shadow=0;glass=0;comic=0;strokeColor=#000000;fillColor=#000000;align=center;fontSize=55;labelPosition=center;verticalLabelPosition=top;verticalAlign=bottom;fontStyle=1;fontFamily=Palatino;" parent="1" vertex="1"><mxGeometry x="6489.43" y="1965" width="31" height="31" as="geometry"/></mxCell><mxCell id="OpdNplUtQxuJoesoAGpr-172" value="" style="edgeStyle=none;rounded=0;jumpStyle=none;orthogonalLoop=1;jettySize=auto;html=1;startArrow=none;startFill=0;endArrow=none;endFill=0;strokeColor=#000000;strokeWidth=3;fontSize=55;fontStyle=1;fontFamily=Palatino;" parent="1" source="OpdNplUtQxuJoesoAGpr-173" target="OpdNplUtQxuJoesoAGpr-176" edge="1"><mxGeometry relative="1" as="geometry"/></mxCell><mxCell id="OpdNplUtQxuJoesoAGpr-173" value="36" style="ellipse;whiteSpace=wrap;html=1;aspect=fixed;rounded=1;shadow=0;glass=0;comic=0;strokeColor=#000000;fillColor=#000000;align=right;fontSize=55;labelPosition=left;verticalLabelPosition=middle;verticalAlign=middle;fontStyle=1;fontFamily=Palatino;" parent="1" vertex="1"><mxGeometry x="5868.001428571429" y="2211.5" width="31" height="31" as="geometry"/></mxCell><mxCell id="OpdNplUtQxuJoesoAGpr-174" value="" style="edgeStyle=none;rounded=0;jumpStyle=none;orthogonalLoop=1;jettySize=auto;html=1;startArrow=none;startFill=0;endArrow=none;endFill=0;strokeColor=#000000;strokeWidth=3;fontSize=55;fontStyle=1;fontFamily=Palatino;" parent="1" source="OpdNplUtQxuJoesoAGpr-176" target="OpdNplUtQxuJoesoAGpr-178" edge="1"><mxGeometry relative="1" as="geometry"/></mxCell><mxCell id="OpdNplUtQxuJoesoAGpr-175" value="" style="edgeStyle=none;rounded=0;jumpStyle=none;orthogonalLoop=1;jettySize=auto;html=1;startArrow=none;startFill=0;endArrow=none;endFill=0;strokeColor=#000000;strokeWidth=3;fontSize=55;fontStyle=1;fontFamily=Palatino;" parent="1" source="OpdNplUtQxuJoesoAGpr-176" target="OpdNplUtQxuJoesoAGpr-177" edge="1"><mxGeometry relative="1" as="geometry"/></mxCell><mxCell id="OpdNplUtQxuJoesoAGpr-176" value="17" style="ellipse;whiteSpace=wrap;html=1;aspect=fixed;rounded=1;shadow=0;glass=0;comic=0;strokeColor=#000000;fillColor=#000000;align=right;fontSize=55;labelPosition=left;verticalLabelPosition=middle;verticalAlign=middle;fontStyle=1;fontFamily=Palatino;" parent="1" vertex="1"><mxGeometry x="5903.501428571429" y="2296" width="31" height="31" as="geometry"/></mxCell><mxCell id="OpdNplUtQxuJoesoAGpr-177" value="19" style="ellipse;whiteSpace=wrap;html=1;aspect=fixed;rounded=1;shadow=0;glass=0;comic=0;strokeColor=#000000;fillColor=#000000;align=center;fontSize=55;labelPosition=center;verticalLabelPosition=top;verticalAlign=bottom;fontStyle=1;fontFamily=Palatino;" parent="1" vertex="1"><mxGeometry x="5998.001428571429" y="2256" width="31" height="31" as="geometry"/></mxCell><mxCell id="OpdNplUtQxuJoesoAGpr-178" value="18" style="ellipse;whiteSpace=wrap;html=1;aspect=fixed;rounded=1;shadow=0;glass=0;comic=0;strokeColor=#000000;fillColor=#000000;align=right;fontSize=55;labelPosition=left;verticalLabelPosition=middle;verticalAlign=middle;fontStyle=1;fontFamily=Palatino;" parent="1" vertex="1"><mxGeometry x="5934.501428571429" y="2376" width="31" height="31" as="geometry"/></mxCell><mxCell id="OpdNplUtQxuJoesoAGpr-179" value="" style="edgeStyle=none;rounded=0;jumpStyle=none;orthogonalLoop=1;jettySize=auto;html=1;startArrow=none;startFill=0;endArrow=none;endFill=0;strokeColor=#000000;strokeWidth=3;fontSize=55;fontStyle=1;fontFamily=Palatino;" parent="1" source="OpdNplUtQxuJoesoAGpr-182" target="OpdNplUtQxuJoesoAGpr-202" edge="1"><mxGeometry relative="1" as="geometry"/></mxCell><mxCell id="OpdNplUtQxuJoesoAGpr-181" value="" style="edgeStyle=none;rounded=0;jumpStyle=none;orthogonalLoop=1;jettySize=auto;html=1;startArrow=none;startFill=0;endArrow=none;endFill=0;strokeColor=#000000;strokeWidth=3;fontSize=55;fontStyle=1;fontFamily=Palatino;" parent="1" source="OpdNplUtQxuJoesoAGpr-182" target="OpdNplUtQxuJoesoAGpr-183" edge="1"><mxGeometry relative="1" as="geometry"/></mxCell><mxCell id="7" style="edgeStyle=none;rounded=0;orthogonalLoop=1;jettySize=auto;html=1;endArrow=none;endFill=0;strokeWidth=3;" parent="1" source="OpdNplUtQxuJoesoAGpr-182" target="OpdNplUtQxuJoesoAGpr-34" edge="1"><mxGeometry relative="1" as="geometry"/></mxCell><mxCell id="OpdNplUtQxuJoesoAGpr-182" value="10" style="ellipse;whiteSpace=wrap;html=1;aspect=fixed;rounded=1;shadow=0;glass=0;comic=0;strokeColor=#000000;fillColor=#000000;align=left;fontSize=55;labelPosition=right;verticalLabelPosition=bottom;verticalAlign=top;fontStyle=1;fontFamily=Palatino;" parent="1" vertex="1"><mxGeometry x="5715.43" y="2115" width="31" height="31" as="geometry"/></mxCell><mxCell id="OpdNplUtQxuJoesoAGpr-183" value="14" style="ellipse;whiteSpace=wrap;html=1;aspect=fixed;rounded=1;shadow=0;glass=0;comic=0;strokeColor=#000000;fillColor=#000000;align=right;fontSize=55;labelPosition=left;verticalLabelPosition=middle;verticalAlign=middle;fontStyle=1;fontFamily=Palatino;" parent="1" vertex="1"><mxGeometry x="5715.501428571429" y="2234.5" width="31" height="31" as="geometry"/></mxCell><mxCell id="6" style="edgeStyle=none;rounded=0;orthogonalLoop=1;jettySize=auto;html=1;endArrow=none;endFill=0;strokeWidth=3;" parent="1" source="OpdNplUtQxuJoesoAGpr-185" target="OpdNplUtQxuJoesoAGpr-182" edge="1"><mxGeometry relative="1" as="geometry"/></mxCell><mxCell id="OpdNplUtQxuJoesoAGpr-185" value="9" style="ellipse;whiteSpace=wrap;html=1;aspect=fixed;rounded=1;shadow=0;glass=0;comic=0;strokeColor=#000000;fillColor=#000000;align=center;fontSize=55;labelPosition=center;verticalLabelPosition=top;verticalAlign=bottom;fontStyle=1;fontFamily=Palatino;" parent="1" vertex="1"><mxGeometry x="5613.43" y="2134" width="31" height="31" as="geometry"/></mxCell><mxCell id="OpdNplUtQxuJoesoAGpr-186" value="" style="edgeStyle=none;rounded=0;jumpStyle=none;orthogonalLoop=1;jettySize=auto;html=1;startArrow=none;startFill=0;endArrow=none;endFill=0;strokeColor=#000000;strokeWidth=3;fontSize=55;fontStyle=1;fontFamily=Palatino;" parent="1" source="OpdNplUtQxuJoesoAGpr-189" target="OpdNplUtQxuJoesoAGpr-200" edge="1"><mxGeometry relative="1" as="geometry"/></mxCell><mxCell id="OpdNplUtQxuJoesoAGpr-188" value="" style="edgeStyle=none;rounded=0;jumpStyle=none;orthogonalLoop=1;jettySize=auto;html=1;startArrow=none;startFill=0;endArrow=none;endFill=0;strokeColor=#000000;strokeWidth=3;fontSize=55;fontStyle=1;fontFamily=Palatino;" parent="1" source="OpdNplUtQxuJoesoAGpr-189" target="OpdNplUtQxuJoesoAGpr-192" edge="1"><mxGeometry relative="1" as="geometry"/></mxCell><mxCell id="5" style="edgeStyle=none;rounded=0;orthogonalLoop=1;jettySize=auto;html=1;endArrow=none;endFill=0;strokeWidth=3;" parent="1" source="OpdNplUtQxuJoesoAGpr-189" target="OpdNplUtQxuJoesoAGpr-185" edge="1"><mxGeometry relative="1" as="geometry"/></mxCell><mxCell id="OpdNplUtQxuJoesoAGpr-189" value="3" style="ellipse;whiteSpace=wrap;html=1;aspect=fixed;rounded=1;shadow=0;glass=0;comic=0;strokeColor=#000000;fillColor=#000000;align=right;fontSize=55;labelPosition=left;verticalLabelPosition=bottom;verticalAlign=top;fontStyle=1;fontFamily=Palatino;" parent="1" vertex="1"><mxGeometry x="5510.501428571429" y="2152.5" width="31" height="31" as="geometry"/></mxCell><mxCell id="OpdNplUtQxuJoesoAGpr-190" value="" style="edgeStyle=none;rounded=0;jumpStyle=none;orthogonalLoop=1;jettySize=auto;html=1;startArrow=none;startFill=0;endArrow=none;endFill=0;strokeColor=#000000;strokeWidth=3;fontSize=55;fontStyle=1;fontFamily=Palatino;" parent="1" source="OpdNplUtQxuJoesoAGpr-192" target="OpdNplUtQxuJoesoAGpr-195" edge="1"><mxGeometry relative="1" as="geometry"/></mxCell><mxCell id="OpdNplUtQxuJoesoAGpr-191" value="" style="edgeStyle=none;rounded=0;jumpStyle=none;orthogonalLoop=1;jettySize=auto;html=1;startArrow=none;startFill=0;endArrow=none;endFill=0;strokeColor=#000000;strokeWidth=3;fontSize=55;fontStyle=1;fontFamily=Palatino;" parent="1" source="OpdNplUtQxuJoesoAGpr-192" target="OpdNplUtQxuJoesoAGpr-193" edge="1"><mxGeometry relative="1" as="geometry"/></mxCell><mxCell id="OpdNplUtQxuJoesoAGpr-192" value="5" style="ellipse;whiteSpace=wrap;html=1;aspect=fixed;rounded=1;shadow=0;glass=0;comic=0;strokeColor=#000000;fillColor=#000000;align=right;fontSize=55;labelPosition=left;verticalLabelPosition=middle;verticalAlign=middle;fontStyle=1;fontFamily=Palatino;" parent="1" vertex="1"><mxGeometry x="5512.501428571429" y="2316" width="31" height="31" as="geometry"/></mxCell><mxCell id="OpdNplUtQxuJoesoAGpr-193" value="6" style="ellipse;whiteSpace=wrap;html=1;aspect=fixed;rounded=1;shadow=0;glass=0;comic=0;strokeColor=#000000;fillColor=#000000;align=right;fontSize=55;labelPosition=left;verticalLabelPosition=middle;verticalAlign=middle;fontStyle=1;fontFamily=Palatino;" parent="1" vertex="1"><mxGeometry x="5508.001428571429" y="2396" width="31" height="31" as="geometry"/></mxCell><mxCell id="OpdNplUtQxuJoesoAGpr-194" value="" style="edgeStyle=none;rounded=0;jumpStyle=none;orthogonalLoop=1;jettySize=auto;html=1;startArrow=none;startFill=0;endArrow=none;endFill=0;strokeColor=#000000;strokeWidth=3;fontSize=55;fontStyle=1;fontFamily=Palatino;" parent="1" source="OpdNplUtQxuJoesoAGpr-195" target="OpdNplUtQxuJoesoAGpr-196" edge="1"><mxGeometry relative="1" as="geometry"/></mxCell><mxCell id="OpdNplUtQxuJoesoAGpr-195" value="7" style="ellipse;whiteSpace=wrap;html=1;aspect=fixed;rounded=1;shadow=0;glass=0;comic=0;strokeColor=#000000;fillColor=#000000;align=center;fontSize=55;labelPosition=center;verticalLabelPosition=top;verticalAlign=bottom;fontStyle=1;fontFamily=Palatino;" parent="1" vertex="1"><mxGeometry x="5602.501428571429" y="2326" width="31" height="31" as="geometry"/></mxCell><mxCell id="OpdNplUtQxuJoesoAGpr-196" value="8" style="ellipse;whiteSpace=wrap;html=1;aspect=fixed;rounded=1;shadow=0;glass=0;comic=0;strokeColor=#000000;fillColor=#000000;align=left;fontSize=55;labelPosition=right;verticalLabelPosition=middle;verticalAlign=middle;fontStyle=1;fontFamily=Palatino;" parent="1" vertex="1"><mxGeometry x="5713.501428571429" y="2336" width="31" height="31" as="geometry"/></mxCell><mxCell id="4" style="edgeStyle=none;rounded=0;orthogonalLoop=1;jettySize=auto;html=1;endArrow=none;endFill=0;strokeWidth=3;" parent="1" source="OpdNplUtQxuJoesoAGpr-198" target="OpdNplUtQxuJoesoAGpr-189" edge="1"><mxGeometry relative="1" as="geometry"/></mxCell><mxCell id="OpdNplUtQxuJoesoAGpr-198" value="2" style="ellipse;whiteSpace=wrap;html=1;aspect=fixed;rounded=1;shadow=0;glass=0;comic=0;strokeColor=#000000;fillColor=#000000;align=center;fontSize=55;labelPosition=center;verticalLabelPosition=top;verticalAlign=bottom;fontStyle=1;fontFamily=Palatino;" parent="1" vertex="1"><mxGeometry x="5390.501428571429" y="2152.5" width="31" height="31" as="geometry"/></mxCell><mxCell id="OpdNplUtQxuJoesoAGpr-200" value="4" style="ellipse;whiteSpace=wrap;html=1;aspect=fixed;rounded=1;shadow=0;glass=0;comic=0;strokeColor=#000000;fillColor=#000000;align=right;fontSize=55;labelPosition=left;verticalLabelPosition=middle;verticalAlign=middle;fontStyle=1;fontFamily=Palatino;" parent="1" vertex="1"><mxGeometry x="5510.501428571429" y="2074" width="31" height="31" as="geometry"/></mxCell><mxCell id="OpdNplUtQxuJoesoAGpr-201" value="" style="edgeStyle=none;rounded=0;jumpStyle=none;orthogonalLoop=1;jettySize=auto;html=1;startArrow=none;startFill=0;endArrow=none;endFill=0;strokeColor=#000000;strokeWidth=3;fontSize=55;fontStyle=1;fontFamily=Palatino;" parent="1" source="OpdNplUtQxuJoesoAGpr-202" target="OpdNplUtQxuJoesoAGpr-205" edge="1"><mxGeometry relative="1" as="geometry"><mxPoint x="5659.0494367520005" y="1935.9730648188834" as="targetPoint"/></mxGeometry></mxCell><mxCell id="OpdNplUtQxuJoesoAGpr-202" value="11" style="ellipse;whiteSpace=wrap;html=1;aspect=fixed;rounded=1;shadow=0;glass=0;comic=0;strokeColor=#000000;fillColor=#000000;align=left;fontSize=55;labelPosition=right;verticalLabelPosition=middle;verticalAlign=middle;fontStyle=1;fontFamily=Palatino;" parent="1" vertex="1"><mxGeometry x="5660.93" y="1983" width="31" height="31" as="geometry"/></mxCell><mxCell id="OpdNplUtQxuJoesoAGpr-203" value="" style="edgeStyle=none;rounded=0;jumpStyle=none;orthogonalLoop=1;jettySize=auto;html=1;startArrow=none;startFill=0;endArrow=none;endFill=0;strokeColor=#000000;strokeWidth=3;fontSize=55;fontStyle=1;fontFamily=Palatino;" parent="1" source="OpdNplUtQxuJoesoAGpr-205" target="OpdNplUtQxuJoesoAGpr-207" edge="1"><mxGeometry relative="1" as="geometry"/></mxCell><mxCell id="OpdNplUtQxuJoesoAGpr-204" value="" style="edgeStyle=none;rounded=0;jumpStyle=none;orthogonalLoop=1;jettySize=auto;html=1;startArrow=none;startFill=0;endArrow=none;endFill=0;strokeColor=#000000;strokeWidth=3;fontSize=55;fontStyle=1;fontFamily=Palatino;" parent="1" source="OpdNplUtQxuJoesoAGpr-205" target="OpdNplUtQxuJoesoAGpr-206" edge="1"><mxGeometry relative="1" as="geometry"/></mxCell><mxCell id="OpdNplUtQxuJoesoAGpr-205" value="16" style="ellipse;whiteSpace=wrap;html=1;aspect=fixed;rounded=1;shadow=0;glass=0;comic=0;strokeColor=#000000;fillColor=#000000;align=center;fontSize=55;labelPosition=center;verticalLabelPosition=top;verticalAlign=bottom;fontStyle=1;fontFamily=Palatino;" parent="1" vertex="1"><mxGeometry x="5602.501428571429" y="1905.5" width="31" height="31" as="geometry"/></mxCell><mxCell id="OpdNplUtQxuJoesoAGpr-206" value="13" style="ellipse;whiteSpace=wrap;html=1;aspect=fixed;rounded=1;shadow=0;glass=0;comic=0;strokeColor=#000000;fillColor=#000000;align=right;fontSize=55;labelPosition=left;verticalLabelPosition=middle;verticalAlign=middle;fontStyle=1;fontFamily=Palatino;" parent="1" vertex="1"><mxGeometry x="5479.501428571429" y="1855" width="31" height="31" as="geometry"/></mxCell><mxCell id="OpdNplUtQxuJoesoAGpr-207" value="12" style="ellipse;whiteSpace=wrap;html=1;aspect=fixed;rounded=1;shadow=0;glass=0;comic=0;strokeColor=#000000;fillColor=#000000;align=right;fontSize=55;labelPosition=left;verticalLabelPosition=middle;verticalAlign=middle;fontStyle=1;fontFamily=Palatino;" parent="1" vertex="1"><mxGeometry x="5492.501428571429" y="1958.5" width="31" height="31" as="geometry"/></mxCell><mxCell id="OpdNplUtQxuJoesoAGpr-208" value="" style="edgeStyle=none;rounded=0;jumpStyle=none;orthogonalLoop=1;jettySize=auto;html=1;startArrow=none;startFill=0;endArrow=none;endFill=0;strokeColor=#000000;strokeWidth=3;fontSize=55;fontStyle=1;fontFamily=Palatino;" parent="1" source="OpdNplUtQxuJoesoAGpr-209" target="OpdNplUtQxuJoesoAGpr-212" edge="1"><mxGeometry relative="1" as="geometry"/></mxCell><mxCell id="OpdNplUtQxuJoesoAGpr-209" value="118" style="ellipse;whiteSpace=wrap;html=1;aspect=fixed;rounded=1;shadow=0;glass=0;comic=0;strokeColor=#000000;fillColor=#000000;align=center;labelPosition=center;verticalLabelPosition=bottom;verticalAlign=top;fontSize=55;fontStyle=1;fontFamily=Palatino;" parent="1" vertex="1"><mxGeometry x="5798.001428571429" y="1696" width="31" height="31" as="geometry"/></mxCell><mxCell id="OpdNplUtQxuJoesoAGpr-210" value="" style="edgeStyle=none;rounded=0;jumpStyle=none;orthogonalLoop=1;jettySize=auto;html=1;startArrow=none;startFill=0;endArrow=none;endFill=0;strokeColor=#000000;strokeWidth=3;fontSize=55;fontStyle=1;fontFamily=Palatino;" parent="1" source="OpdNplUtQxuJoesoAGpr-212" target="OpdNplUtQxuJoesoAGpr-222" edge="1"><mxGeometry relative="1" as="geometry"/></mxCell><mxCell id="OpdNplUtQxuJoesoAGpr-211" value="" style="edgeStyle=none;rounded=0;jumpStyle=none;orthogonalLoop=1;jettySize=auto;html=1;startArrow=none;startFill=0;endArrow=none;endFill=0;strokeColor=#000000;strokeWidth=3;fontSize=55;fontStyle=1;fontFamily=Palatino;" parent="1" source="OpdNplUtQxuJoesoAGpr-212" target="OpdNplUtQxuJoesoAGpr-215" edge="1"><mxGeometry relative="1" as="geometry"/></mxCell><mxCell id="OpdNplUtQxuJoesoAGpr-212" value="37" style="ellipse;whiteSpace=wrap;html=1;aspect=fixed;rounded=1;shadow=0;glass=0;comic=0;strokeColor=#82b366;fillColor=#d5e8d4;align=left;fontSize=55;labelPosition=right;verticalLabelPosition=middle;verticalAlign=middle;strokeWidth=7;fontStyle=1;fontFamily=Palatino;" parent="1" vertex="1"><mxGeometry x="5888.001428571429" y="1666" width="31" height="31" as="geometry"/></mxCell><mxCell id="OpdNplUtQxuJoesoAGpr-213" value="" style="edgeStyle=none;rounded=0;jumpStyle=none;orthogonalLoop=1;jettySize=auto;html=1;startArrow=none;startFill=0;endArrow=none;endFill=0;strokeColor=#000000;strokeWidth=3;fontSize=55;fontStyle=1;fontFamily=Palatino;" parent="1" source="OpdNplUtQxuJoesoAGpr-215" target="OpdNplUtQxuJoesoAGpr-219" edge="1"><mxGeometry relative="1" as="geometry"/></mxCell><mxCell id="OpdNplUtQxuJoesoAGpr-214" value="" style="edgeStyle=none;rounded=0;jumpStyle=none;orthogonalLoop=1;jettySize=auto;html=1;startArrow=none;startFill=0;endArrow=none;endFill=0;strokeColor=#000000;strokeWidth=3;fontSize=55;fontStyle=1;fontFamily=Palatino;" parent="1" source="OpdNplUtQxuJoesoAGpr-215" target="OpdNplUtQxuJoesoAGpr-217" edge="1"><mxGeometry relative="1" as="geometry"/></mxCell><mxCell id="OpdNplUtQxuJoesoAGpr-215" value="38" style="ellipse;whiteSpace=wrap;html=1;aspect=fixed;rounded=1;shadow=0;glass=0;comic=0;strokeColor=#000000;fillColor=#000000;align=center;fontSize=55;labelPosition=center;verticalLabelPosition=top;verticalAlign=bottom;fontStyle=1;fontFamily=Palatino;" parent="1" vertex="1"><mxGeometry x="6031.43" y="1746" width="31" height="31" as="geometry"/></mxCell><mxCell id="OpdNplUtQxuJoesoAGpr-216" value="" style="edgeStyle=none;rounded=0;jumpStyle=none;orthogonalLoop=1;jettySize=auto;html=1;startArrow=none;startFill=0;endArrow=none;endFill=0;strokeColor=#000000;strokeWidth=3;fontSize=55;fontStyle=1;fontFamily=Palatino;" parent="1" source="OpdNplUtQxuJoesoAGpr-217" target="OpdNplUtQxuJoesoAGpr-218" edge="1"><mxGeometry relative="1" as="geometry"/></mxCell><mxCell id="OpdNplUtQxuJoesoAGpr-217" value="40" style="ellipse;whiteSpace=wrap;html=1;aspect=fixed;rounded=1;shadow=0;glass=0;comic=0;strokeColor=#000000;fillColor=#000000;align=center;fontSize=55;labelPosition=center;verticalLabelPosition=top;verticalAlign=bottom;fontStyle=1;fontFamily=Palatino;" parent="1" vertex="1"><mxGeometry x="6159.43" y="1711" width="31" height="31" as="geometry"/></mxCell><mxCell id="OpdNplUtQxuJoesoAGpr-218" value="41" style="ellipse;whiteSpace=wrap;html=1;aspect=fixed;rounded=1;shadow=0;glass=0;comic=0;strokeColor=#000000;fillColor=#000000;align=left;fontSize=55;labelPosition=right;verticalLabelPosition=middle;verticalAlign=middle;fontStyle=1;fontFamily=Palatino;" parent="1" vertex="1"><mxGeometry x="6288.001428571429" y="1675" width="31" height="31" as="geometry"/></mxCell><mxCell id="OpdNplUtQxuJoesoAGpr-219" value="39" style="ellipse;whiteSpace=wrap;html=1;aspect=fixed;rounded=1;shadow=0;glass=0;comic=0;strokeColor=#000000;fillColor=#000000;align=center;fontSize=55;labelPosition=center;verticalLabelPosition=top;verticalAlign=bottom;fontStyle=1;fontFamily=Palatino;" parent="1" vertex="1"><mxGeometry x="5903.501428571429" y="1782" width="31" height="31" as="geometry"/></mxCell><mxCell id="OpdNplUtQxuJoesoAGpr-220" value="" style="edgeStyle=none;rounded=0;jumpStyle=none;orthogonalLoop=1;jettySize=auto;html=1;startArrow=none;startFill=0;endArrow=none;endFill=0;strokeColor=#000000;strokeWidth=3;fontSize=55;fontStyle=1;fontFamily=Palatino;" parent="1" source="OpdNplUtQxuJoesoAGpr-222" target="OpdNplUtQxuJoesoAGpr-226" edge="1"><mxGeometry relative="1" as="geometry"/></mxCell><mxCell id="OpdNplUtQxuJoesoAGpr-221" value="" style="edgeStyle=none;rounded=0;jumpStyle=none;orthogonalLoop=1;jettySize=auto;html=1;startArrow=none;startFill=0;endArrow=none;endFill=0;strokeColor=#000000;strokeWidth=3;fontSize=55;fontStyle=1;fontFamily=Palatino;" parent="1" source="OpdNplUtQxuJoesoAGpr-222" target="OpdNplUtQxuJoesoAGpr-223" edge="1"><mxGeometry relative="1" as="geometry"/></mxCell><mxCell id="OpdNplUtQxuJoesoAGpr-222" value="42" style="ellipse;whiteSpace=wrap;html=1;aspect=fixed;rounded=1;shadow=0;glass=0;comic=0;strokeColor=#000000;fillColor=#000000;align=right;fontSize=55;labelPosition=left;verticalLabelPosition=middle;verticalAlign=middle;fontStyle=1;fontFamily=Palatino;" parent="1" vertex="1"><mxGeometry x="5857.43" y="1585" width="31" height="31" as="geometry"/></mxCell><mxCell id="OpdNplUtQxuJoesoAGpr-223" value="43" style="ellipse;whiteSpace=wrap;html=1;aspect=fixed;rounded=1;shadow=0;glass=0;comic=0;strokeColor=#000000;fillColor=#000000;align=left;fontSize=55;labelPosition=right;verticalLabelPosition=middle;verticalAlign=middle;fontStyle=1;fontFamily=Palatino;" parent="1" vertex="1"><mxGeometry x="6069.001428571429" y="1549.5" width="31" height="31" as="geometry"/></mxCell><mxCell id="OpdNplUtQxuJoesoAGpr-224" value="" style="edgeStyle=none;rounded=0;jumpStyle=none;orthogonalLoop=1;jettySize=auto;html=1;startArrow=none;startFill=0;endArrow=none;endFill=0;strokeColor=#000000;strokeWidth=3;fontSize=55;fontStyle=1;fontFamily=Palatino;" parent="1" source="OpdNplUtQxuJoesoAGpr-226" target="OpdNplUtQxuJoesoAGpr-230" edge="1"><mxGeometry relative="1" as="geometry"/></mxCell><mxCell id="OpdNplUtQxuJoesoAGpr-225" value="" style="edgeStyle=none;rounded=0;jumpStyle=none;orthogonalLoop=1;jettySize=auto;html=1;startArrow=none;startFill=0;endArrow=none;endFill=0;strokeColor=#000000;strokeWidth=3;fontSize=55;fontStyle=1;fontFamily=Palatino;" parent="1" source="OpdNplUtQxuJoesoAGpr-226" target="OpdNplUtQxuJoesoAGpr-227" edge="1"><mxGeometry relative="1" as="geometry"/></mxCell><mxCell id="OpdNplUtQxuJoesoAGpr-226" value="44" style="ellipse;whiteSpace=wrap;html=1;aspect=fixed;rounded=1;shadow=0;glass=0;comic=0;strokeColor=#000000;fillColor=#000000;align=right;fontSize=55;labelPosition=left;verticalLabelPosition=middle;verticalAlign=middle;fontStyle=1;fontFamily=Palatino;" parent="1" vertex="1"><mxGeometry x="5827.43" y="1503" width="31" height="31" as="geometry"/></mxCell><mxCell id="OpdNplUtQxuJoesoAGpr-227" value="45" style="ellipse;whiteSpace=wrap;html=1;aspect=fixed;rounded=1;shadow=0;glass=0;comic=0;strokeColor=#000000;fillColor=#000000;align=left;fontSize=55;labelPosition=right;verticalLabelPosition=middle;verticalAlign=middle;fontStyle=1;fontFamily=Palatino;" parent="1" vertex="1"><mxGeometry x="6069.001428571429" y="1461.5" width="31" height="31" as="geometry"/></mxCell><mxCell id="OpdNplUtQxuJoesoAGpr-228" value="" style="edgeStyle=none;rounded=0;jumpStyle=none;orthogonalLoop=1;jettySize=auto;html=1;startArrow=none;startFill=0;endArrow=none;endFill=0;strokeColor=#000000;strokeWidth=3;fontSize=55;fontStyle=1;fontFamily=Palatino;" parent="1" source="OpdNplUtQxuJoesoAGpr-230" target="OpdNplUtQxuJoesoAGpr-236" edge="1"><mxGeometry relative="1" as="geometry"/></mxCell><mxCell id="OpdNplUtQxuJoesoAGpr-229" value="" style="edgeStyle=none;rounded=0;jumpStyle=none;orthogonalLoop=1;jettySize=auto;html=1;startArrow=none;startFill=0;endArrow=none;endFill=0;strokeColor=#000000;strokeWidth=3;fontSize=55;fontStyle=1;fontFamily=Palatino;" parent="1" source="OpdNplUtQxuJoesoAGpr-230" target="OpdNplUtQxuJoesoAGpr-232" edge="1"><mxGeometry relative="1" as="geometry"/></mxCell><mxCell id="OpdNplUtQxuJoesoAGpr-230" value="46" style="ellipse;whiteSpace=wrap;html=1;aspect=fixed;rounded=1;shadow=0;glass=0;comic=0;align=right;fontSize=55;labelPosition=left;verticalLabelPosition=middle;verticalAlign=middle;strokeWidth=1;fillColor=#000000;fontStyle=1;fontFamily=Palatino;" parent="1" vertex="1"><mxGeometry x="5797.43" y="1422" width="31" height="31" as="geometry"/></mxCell><mxCell id="OpdNplUtQxuJoesoAGpr-231" value="" style="edgeStyle=none;rounded=0;jumpStyle=none;orthogonalLoop=1;jettySize=auto;html=1;startArrow=none;startFill=0;endArrow=none;endFill=0;strokeColor=#000000;strokeWidth=3;fontSize=55;fontStyle=1;fontFamily=Palatino;" parent="1" source="OpdNplUtQxuJoesoAGpr-232" target="OpdNplUtQxuJoesoAGpr-233" edge="1"><mxGeometry relative="1" as="geometry"/></mxCell><mxCell id="OpdNplUtQxuJoesoAGpr-232" value="47" style="ellipse;whiteSpace=wrap;html=1;aspect=fixed;rounded=1;shadow=0;glass=0;comic=0;strokeColor=#000000;fillColor=#000000;align=center;fontSize=55;labelPosition=center;verticalLabelPosition=top;verticalAlign=bottom;fontStyle=1;fontFamily=Palatino;" parent="1" vertex="1"><mxGeometry x="5933.43" y="1394" width="31" height="31" as="geometry"/></mxCell><mxCell id="OpdNplUtQxuJoesoAGpr-233" value="48" style="ellipse;whiteSpace=wrap;html=1;aspect=fixed;rounded=1;shadow=0;glass=0;comic=0;strokeColor=#000000;fillColor=#000000;align=left;fontSize=55;labelPosition=right;verticalLabelPosition=middle;verticalAlign=middle;fontStyle=1;fontFamily=Palatino;" parent="1" vertex="1"><mxGeometry x="6069.001428571429" y="1366" width="31" height="31" as="geometry"/></mxCell><mxCell id="OpdNplUtQxuJoesoAGpr-234" value="" style="edgeStyle=none;rounded=0;jumpStyle=none;orthogonalLoop=1;jettySize=auto;html=1;startArrow=none;startFill=0;endArrow=none;endFill=0;strokeColor=#000000;strokeWidth=3;fontSize=55;fontStyle=1;fontFamily=Palatino;" parent="1" source="OpdNplUtQxuJoesoAGpr-236" target="OpdNplUtQxuJoesoAGpr-244" edge="1"><mxGeometry relative="1" as="geometry"/></mxCell><mxCell id="OpdNplUtQxuJoesoAGpr-235" value="" style="edgeStyle=none;rounded=0;jumpStyle=none;orthogonalLoop=1;jettySize=auto;html=1;startArrow=none;startFill=0;endArrow=none;endFill=0;strokeColor=#000000;strokeWidth=3;fontSize=55;fontStyle=1;fontFamily=Palatino;" parent="1" source="OpdNplUtQxuJoesoAGpr-236" target="OpdNplUtQxuJoesoAGpr-238" edge="1"><mxGeometry relative="1" as="geometry"/></mxCell><mxCell id="OpdNplUtQxuJoesoAGpr-236" value="49" style="ellipse;whiteSpace=wrap;html=1;aspect=fixed;rounded=1;shadow=0;glass=0;comic=0;strokeColor=#82b366;fillColor=#d5e8d4;align=center;strokeWidth=7;fontSize=55;labelPosition=center;verticalLabelPosition=top;verticalAlign=bottom;fontStyle=1;fontFamily=Palatino;" parent="1" vertex="1"><mxGeometry x="5767.001428571429" y="1340.5" width="31" height="31" as="geometry"/></mxCell><mxCell id="OpdNplUtQxuJoesoAGpr-237" value="" style="edgeStyle=none;rounded=0;jumpStyle=none;orthogonalLoop=1;jettySize=auto;html=1;startArrow=none;startFill=0;endArrow=none;endFill=0;strokeColor=#000000;strokeWidth=3;fontSize=55;fontStyle=1;fontFamily=Palatino;" parent="1" source="OpdNplUtQxuJoesoAGpr-238" target="OpdNplUtQxuJoesoAGpr-240" edge="1"><mxGeometry relative="1" as="geometry"/></mxCell><mxCell id="OpdNplUtQxuJoesoAGpr-238" value="51" style="ellipse;whiteSpace=wrap;html=1;aspect=fixed;rounded=1;shadow=0;glass=0;comic=0;strokeColor=#82b366;fillColor=#d5e8d4;align=center;strokeWidth=7;fontSize=55;labelPosition=center;verticalLabelPosition=top;verticalAlign=bottom;fontStyle=1;fontFamily=Palatino;" parent="1" vertex="1"><mxGeometry x="5898.43" y="1307" width="31" height="31" as="geometry"/></mxCell><mxCell id="OpdNplUtQxuJoesoAGpr-239" value="" style="edgeStyle=none;rounded=0;jumpStyle=none;orthogonalLoop=1;jettySize=auto;html=1;startArrow=none;startFill=0;endArrow=none;endFill=0;strokeColor=#000000;strokeWidth=3;fontSize=55;labelPosition=center;verticalLabelPosition=top;align=center;verticalAlign=bottom;fontStyle=1;fontFamily=Palatino;" parent="1" source="OpdNplUtQxuJoesoAGpr-240" target="OpdNplUtQxuJoesoAGpr-242" edge="1"><mxGeometry relative="1" as="geometry"/></mxCell><mxCell id="OpdNplUtQxuJoesoAGpr-240" value="52" style="ellipse;whiteSpace=wrap;html=1;aspect=fixed;rounded=1;shadow=0;glass=0;comic=0;strokeColor=#000000;fillColor=#000000;align=center;fontSize=55;labelPosition=center;verticalLabelPosition=top;verticalAlign=bottom;fontStyle=1;fontFamily=Palatino;" parent="1" vertex="1"><mxGeometry x="6030.43" y="1273" width="31" height="31" as="geometry"/></mxCell><mxCell id="OpdNplUtQxuJoesoAGpr-241" value="" style="edgeStyle=none;rounded=0;jumpStyle=none;orthogonalLoop=1;jettySize=auto;html=1;startArrow=none;startFill=0;endArrow=none;endFill=0;strokeColor=#000000;strokeWidth=3;fontSize=55;labelPosition=center;verticalLabelPosition=top;align=center;verticalAlign=bottom;fontStyle=1;fontFamily=Palatino;" parent="1" source="OpdNplUtQxuJoesoAGpr-242" target="OpdNplUtQxuJoesoAGpr-243" edge="1"><mxGeometry relative="1" as="geometry"/></mxCell><mxCell id="OpdNplUtQxuJoesoAGpr-242" value="53" style="ellipse;whiteSpace=wrap;html=1;aspect=fixed;rounded=1;shadow=0;glass=0;comic=0;strokeColor=#000000;fillColor=#000000;align=center;fontSize=55;labelPosition=center;verticalLabelPosition=top;verticalAlign=bottom;fontStyle=1;fontFamily=Palatino;" parent="1" vertex="1"><mxGeometry x="6162.001428571429" y="1238.5" width="31" height="31" as="geometry"/></mxCell><mxCell id="OpdNplUtQxuJoesoAGpr-243" value="120" style="ellipse;whiteSpace=wrap;html=1;aspect=fixed;rounded=1;shadow=0;glass=0;comic=0;strokeColor=#000000;fillColor=#000000;align=center;fontSize=55;labelPosition=center;verticalLabelPosition=bottom;verticalAlign=top;fontStyle=1;fontFamily=Palatino;" parent="1" vertex="1"><mxGeometry x="6348.001428571429" y="1227.5" width="31" height="31" as="geometry"/></mxCell><mxCell id="OpdNplUtQxuJoesoAGpr-244" value="50" style="ellipse;whiteSpace=wrap;html=1;aspect=fixed;rounded=1;shadow=0;glass=0;comic=0;strokeColor=#82b366;fillColor=#d5e8d4;align=center;strokeWidth=7;fontSize=55;labelPosition=center;verticalLabelPosition=top;verticalAlign=bottom;fontStyle=1;fontFamily=Palatino;" parent="1" vertex="1"><mxGeometry x="5685.501428571429" y="1361" width="31" height="31" as="geometry"/></mxCell><mxCell id="OpdNplUtQxuJoesoAGpr-245" value="" style="edgeStyle=none;rounded=0;jumpStyle=none;orthogonalLoop=1;jettySize=auto;html=1;startArrow=none;startFill=0;endArrow=none;endFill=0;strokeColor=#000000;strokeWidth=3;fontSize=55;fontStyle=1;fontFamily=Palatino;" parent="1" source="OpdNplUtQxuJoesoAGpr-246" target="OpdNplUtQxuJoesoAGpr-247" edge="1"><mxGeometry relative="1" as="geometry"/></mxCell><mxCell id="OpdNplUtQxuJoesoAGpr-246" value="21" style="ellipse;whiteSpace=wrap;html=1;aspect=fixed;rounded=1;shadow=0;glass=0;comic=0;strokeColor=#000000;fillColor=#000000;align=center;fontSize=55;labelPosition=center;verticalLabelPosition=top;verticalAlign=bottom;fontStyle=1;fontFamily=Palatino;" parent="1" vertex="1"><mxGeometry x="5541.43" y="1747" width="31" height="31" as="geometry"/></mxCell><mxCell id="OpdNplUtQxuJoesoAGpr-247" value="22" style="ellipse;whiteSpace=wrap;html=1;aspect=fixed;rounded=1;shadow=0;glass=0;comic=0;strokeColor=#000000;fillColor=#000000;align=right;fontSize=55;labelPosition=left;verticalLabelPosition=middle;verticalAlign=middle;fontStyle=1;fontFamily=Palatino;" parent="1" vertex="1"><mxGeometry x="5390.501428571429" y="1777" width="31" height="31" as="geometry"/></mxCell><mxCell id="OpdNplUtQxuJoesoAGpr-248" value="24" style="ellipse;whiteSpace=wrap;html=1;aspect=fixed;rounded=1;shadow=0;glass=0;comic=0;strokeColor=#000000;fillColor=#000000;align=right;fontSize=55;labelPosition=left;verticalLabelPosition=middle;verticalAlign=middle;fontStyle=1;fontFamily=Palatino;" parent="1" vertex="1"><mxGeometry x="5388.43" y="1645" width="31" height="31" as="geometry"/></mxCell><mxCell id="OpdNplUtQxuJoesoAGpr-249" value="26" style="ellipse;whiteSpace=wrap;html=1;aspect=fixed;rounded=1;shadow=0;glass=0;comic=0;strokeColor=#000000;fillColor=#000000;align=right;fontSize=55;labelPosition=left;verticalLabelPosition=middle;verticalAlign=middle;fontStyle=1;fontFamily=Palatino;" parent="1" vertex="1"><mxGeometry x="5386.501428571429" y="1513.5" width="31" height="31" as="geometry"/></mxCell><mxCell id="3" style="edgeStyle=none;rounded=0;orthogonalLoop=1;jettySize=auto;html=1;endArrow=none;endFill=0;strokeWidth=3;" parent="1" source="2" target="OpdNplUtQxuJoesoAGpr-198" edge="1"><mxGeometry relative="1" as="geometry"/></mxCell><mxCell id="2" value="1" style="ellipse;whiteSpace=wrap;html=1;aspect=fixed;rounded=1;shadow=0;glass=0;comic=0;strokeColor=#000000;fillColor=#000000;align=center;fontSize=55;labelPosition=center;verticalLabelPosition=top;verticalAlign=bottom;fontStyle=1;fontFamily=Palatino;" parent="1" vertex="1"><mxGeometry x="5270.001428571429" y="2152.5" width="31" height="31" as="geometry"/></mxCell></root></mxGraphModel></diagram><diagram id="isGrC5DAL26xUcCqz-94" name="IEEE13"><mxGraphModel dx="876" dy="368" grid="1" gridSize="10" guides="1" tooltips="1" connect="1" arrows="1" fold="1" page="1" pageScale="1" pageWidth="850" pageHeight="1100" math="0" shadow="0"><root><mxCell id="0"/><mxCell id="1" parent="0"/><mxCell id="DzVevN67eI-MLHhG5ZgL-1" value="" style="edgeStyle=orthogonalEdgeStyle;rounded=0;orthogonalLoop=1;jettySize=auto;html=1;endArrow=none;endFill=0;" parent="1" source="DzVevN67eI-MLHhG5ZgL-2" target="DzVevN67eI-MLHhG5ZgL-6" edge="1"><mxGeometry relative="1" as="geometry"/></mxCell><mxCell id="DzVevN67eI-MLHhG5ZgL-2" value="1" style="ellipse;whiteSpace=wrap;html=1;aspect=fixed;rounded=1;shadow=0;glass=0;comic=0;strokeColor=#000000;fillColor=#000000;align=right;fontSize=55;labelPosition=left;verticalLabelPosition=middle;verticalAlign=middle;fontStyle=1;fontFamily=Palatino;" parent="1" vertex="1"><mxGeometry x="425" y="110" width="31" height="31" as="geometry"/></mxCell><mxCell id="DzVevN67eI-MLHhG5ZgL-3" value="" style="edgeStyle=orthogonalEdgeStyle;rounded=0;orthogonalLoop=1;jettySize=auto;html=1;endArrow=none;endFill=0;spacing=-10;" parent="1" source="DzVevN67eI-MLHhG5ZgL-6" target="DzVevN67eI-MLHhG5ZgL-8" edge="1"><mxGeometry relative="1" as="geometry"/></mxCell><mxCell id="DzVevN67eI-MLHhG5ZgL-4" value="" style="edgeStyle=orthogonalEdgeStyle;rounded=0;orthogonalLoop=1;jettySize=auto;html=1;endArrow=none;endFill=0;spacing=-10;" parent="1" source="DzVevN67eI-MLHhG5ZgL-6" target="DzVevN67eI-MLHhG5ZgL-11" edge="1"><mxGeometry relative="1" as="geometry"/></mxCell><mxCell id="DzVevN67eI-MLHhG5ZgL-5" value="" style="edgeStyle=orthogonalEdgeStyle;rounded=0;orthogonalLoop=1;jettySize=auto;html=1;endArrow=none;endFill=0;" parent="1" source="DzVevN67eI-MLHhG5ZgL-6" target="DzVevN67eI-MLHhG5ZgL-16" edge="1"><mxGeometry relative="1" as="geometry"/></mxCell><mxCell id="DzVevN67eI-MLHhG5ZgL-6" value="2" style="ellipse;whiteSpace=wrap;html=1;aspect=fixed;rounded=1;shadow=0;glass=0;comic=0;strokeColor=#000000;fillColor=#000000;align=left;fontSize=55;labelPosition=right;verticalLabelPosition=bottom;verticalAlign=top;fontStyle=1;fontFamily=Palatino;spacing=-10;" parent="1" vertex="1"><mxGeometry x="425" y="221" width="31" height="31" as="geometry"/></mxCell><mxCell id="DzVevN67eI-MLHhG5ZgL-7" value="" style="edgeStyle=orthogonalEdgeStyle;rounded=0;orthogonalLoop=1;jettySize=auto;html=1;endArrow=none;endFill=0;spacing=-10;" parent="1" source="DzVevN67eI-MLHhG5ZgL-8" target="DzVevN67eI-MLHhG5ZgL-9" edge="1"><mxGeometry relative="1" as="geometry"/></mxCell><mxCell id="DzVevN67eI-MLHhG5ZgL-8" value="5" style="ellipse;whiteSpace=wrap;html=1;aspect=fixed;rounded=1;shadow=0;glass=0;comic=0;strokeColor=#000000;fillColor=#000000;align=center;fontSize=55;labelPosition=center;verticalLabelPosition=top;verticalAlign=bottom;fontStyle=1;fontFamily=Palatino;spacing=-10;" parent="1" vertex="1"><mxGeometry x="314" y="221" width="31" height="31" as="geometry"/></mxCell><mxCell id="DzVevN67eI-MLHhG5ZgL-9" value="6" style="ellipse;whiteSpace=wrap;html=1;aspect=fixed;rounded=1;shadow=0;glass=0;comic=0;strokeColor=#000000;fillColor=#000000;align=center;fontSize=55;labelPosition=center;verticalLabelPosition=top;verticalAlign=bottom;fontStyle=1;fontFamily=Palatino;spacing=-10;" parent="1" vertex="1"><mxGeometry x="203" y="221" width="31" height="31" as="geometry"/></mxCell><mxCell id="DzVevN67eI-MLHhG5ZgL-10" value="" style="edgeStyle=orthogonalEdgeStyle;rounded=0;orthogonalLoop=1;jettySize=auto;html=1;endArrow=none;endFill=0;spacing=-10;" parent="1" source="DzVevN67eI-MLHhG5ZgL-11" target="DzVevN67eI-MLHhG5ZgL-12" edge="1"><mxGeometry relative="1" as="geometry"/></mxCell><mxCell id="DzVevN67eI-MLHhG5ZgL-11" value="3" style="ellipse;whiteSpace=wrap;html=1;aspect=fixed;rounded=1;shadow=0;glass=0;comic=0;strokeColor=#82b366;fillColor=#d5e8d4;align=center;fontSize=55;labelPosition=center;verticalLabelPosition=top;verticalAlign=bottom;fontStyle=1;fontFamily=Palatino;strokeWidth=7;spacing=-10;" parent="1" vertex="1"><mxGeometry x="536" y="221" width="31" height="31" as="geometry"/></mxCell><mxCell id="DzVevN67eI-MLHhG5ZgL-12" value="4" style="ellipse;whiteSpace=wrap;html=1;aspect=fixed;rounded=1;shadow=0;glass=0;comic=0;strokeColor=#000000;fillColor=#000000;align=center;fontSize=55;labelPosition=center;verticalLabelPosition=top;verticalAlign=bottom;fontStyle=1;fontFamily=Palatino;spacing=-10;" parent="1" vertex="1"><mxGeometry x="647" y="221" width="31" height="31" as="geometry"/></mxCell><mxCell id="DzVevN67eI-MLHhG5ZgL-13" value="" style="edgeStyle=orthogonalEdgeStyle;rounded=0;orthogonalLoop=1;jettySize=auto;html=1;endArrow=none;endFill=0;spacing=-10;" parent="1" source="DzVevN67eI-MLHhG5ZgL-16" target="DzVevN67eI-MLHhG5ZgL-19" edge="1"><mxGeometry relative="1" as="geometry"/></mxCell><mxCell id="DzVevN67eI-MLHhG5ZgL-14" value="" style="edgeStyle=orthogonalEdgeStyle;rounded=0;orthogonalLoop=1;jettySize=auto;html=1;endArrow=none;endFill=0;spacing=-10;" parent="1" source="DzVevN67eI-MLHhG5ZgL-16" target="DzVevN67eI-MLHhG5ZgL-22" edge="1"><mxGeometry relative="1" as="geometry"/></mxCell><mxCell id="DzVevN67eI-MLHhG5ZgL-15" value="" style="edgeStyle=orthogonalEdgeStyle;rounded=0;orthogonalLoop=1;jettySize=auto;html=1;endArrow=none;endFill=0;" parent="1" source="DzVevN67eI-MLHhG5ZgL-16" target="DzVevN67eI-MLHhG5ZgL-25" edge="1"><mxGeometry relative="1" as="geometry"/></mxCell><mxCell id="DzVevN67eI-MLHhG5ZgL-16" value="7" style="ellipse;whiteSpace=wrap;html=1;aspect=fixed;rounded=1;shadow=0;glass=0;comic=0;strokeColor=#000000;fillColor=#000000;align=right;fontSize=55;labelPosition=left;verticalLabelPosition=bottom;verticalAlign=top;fontStyle=1;fontFamily=Palatino;spacing=-10;" parent="1" vertex="1"><mxGeometry x="425" y="332" width="31" height="31" as="geometry"/></mxCell><mxCell id="DzVevN67eI-MLHhG5ZgL-17" value="" style="edgeStyle=orthogonalEdgeStyle;rounded=0;orthogonalLoop=1;jettySize=auto;html=1;endArrow=none;endFill=0;spacing=-10;" parent="1" source="DzVevN67eI-MLHhG5ZgL-19" target="DzVevN67eI-MLHhG5ZgL-20" edge="1"><mxGeometry relative="1" as="geometry"/></mxCell><mxCell id="DzVevN67eI-MLHhG5ZgL-18" value="" style="edgeStyle=orthogonalEdgeStyle;rounded=0;orthogonalLoop=1;jettySize=auto;html=1;endArrow=none;endFill=0;" parent="1" source="DzVevN67eI-MLHhG5ZgL-19" target="DzVevN67eI-MLHhG5ZgL-23" edge="1"><mxGeometry relative="1" as="geometry"/></mxCell><mxCell id="DzVevN67eI-MLHhG5ZgL-19" value="10" style="ellipse;whiteSpace=wrap;html=1;aspect=fixed;rounded=1;shadow=0;glass=0;comic=0;strokeColor=#000000;fillColor=#000000;align=center;fontSize=55;labelPosition=center;verticalLabelPosition=top;verticalAlign=bottom;fontStyle=1;fontFamily=Palatino;spacing=-10;" parent="1" vertex="1"><mxGeometry x="314" y="332" width="31" height="31" as="geometry"/></mxCell><mxCell id="DzVevN67eI-MLHhG5ZgL-20" value="11" style="ellipse;whiteSpace=wrap;html=1;aspect=fixed;rounded=1;shadow=0;glass=0;comic=0;strokeColor=#000000;fillColor=#000000;align=center;fontSize=55;labelPosition=center;verticalLabelPosition=bottom;verticalAlign=top;fontStyle=1;fontFamily=Palatino;spacing=-10;" parent="1" vertex="1"><mxGeometry x="203" y="332" width="31" height="31" as="geometry"/></mxCell><mxCell id="DzVevN67eI-MLHhG5ZgL-21" value="" style="edgeStyle=orthogonalEdgeStyle;rounded=0;orthogonalLoop=1;jettySize=auto;html=1;endArrow=none;endFill=0;spacing=-10;" parent="1" source="DzVevN67eI-MLHhG5ZgL-22" target="DzVevN67eI-MLHhG5ZgL-24" edge="1"><mxGeometry relative="1" as="geometry"/></mxCell><mxCell id="DzVevN67eI-MLHhG5ZgL-22" value="8" style="ellipse;whiteSpace=wrap;html=1;aspect=fixed;rounded=1;shadow=0;glass=0;comic=0;strokeColor=#000000;fillColor=#000000;align=center;fontSize=55;labelPosition=center;verticalLabelPosition=bottom;verticalAlign=top;fontStyle=1;fontFamily=Palatino;spacing=-10;" parent="1" vertex="1"><mxGeometry x="536" y="332" width="31" height="31" as="geometry"/></mxCell><mxCell id="DzVevN67eI-MLHhG5ZgL-23" value="12" style="ellipse;whiteSpace=wrap;html=1;aspect=fixed;rounded=1;shadow=0;glass=0;comic=0;strokeColor=#000000;fillColor=#000000;align=center;fontSize=55;labelPosition=center;verticalLabelPosition=bottom;verticalAlign=top;fontStyle=1;fontFamily=Palatino;spacing=-10;" parent="1" vertex="1"><mxGeometry x="314" y="443" width="31" height="31" as="geometry"/></mxCell><mxCell id="DzVevN67eI-MLHhG5ZgL-24" value="9" style="ellipse;whiteSpace=wrap;html=1;aspect=fixed;rounded=1;shadow=0;glass=0;comic=0;strokeColor=#82b366;fillColor=#d5e8d4;align=center;fontSize=55;labelPosition=center;verticalLabelPosition=bottom;verticalAlign=top;fontStyle=1;fontFamily=Palatino;strokeWidth=7;spacing=-10;" parent="1" vertex="1"><mxGeometry x="647" y="332" width="31" height="31" as="geometry"/></mxCell><mxCell id="DzVevN67eI-MLHhG5ZgL-25" value="13" style="ellipse;whiteSpace=wrap;html=1;aspect=fixed;rounded=1;shadow=0;glass=0;comic=0;strokeColor=#82b366;fillColor=#d5e8d4;align=center;fontSize=55;labelPosition=center;verticalLabelPosition=bottom;verticalAlign=top;fontStyle=1;fontFamily=Palatino;spacing=-10;strokeWidth=7;" parent="1" vertex="1"><mxGeometry x="425" y="443" width="31" height="31" as="geometry"/></mxCell></root></mxGraphModel></diagram></mxfile>